<svg xmlns:rdf="http://www.w3.org/1999/02/22-rdf-syntax-ns#" xmlns:dc="http://purl.org/dc/elements/1.1/" xmlns:cc="http://creativecommons.org/ns#" xmlns:svg="http://www.w3.org/2000/svg" xmlns="http://www.w3.org/2000/svg" xmlns:xlink="http://www.w3.org/1999/xlink" version="1.1" width="595.2789916992188" height="841.8909912109375" enable-background="new 0 0 595.279 841.891" xml:space="preserve" style=""><rect id="backgroundrect" width="100%" height="100%" x="0" y="0" fill="none" stroke="none"/>





<radialGradient id="path184_1_" cx="669.6124877929688" cy="537.1904296875" r="548.8004150390625" gradientTransform="matrix(0.7018 0 0 -1.197 -170.9626 1041.4243)" gradientUnits="userSpaceOnUse">
	<stop offset="0" style="stop-color:#1F1F1F"/>
	<stop offset="1" style="stop-color:#000000"/>
</radialGradient>

<radialGradient id="path272_1_" cx="917.097900390625" cy="694.1171875" r="15.849100112915039" gradientTransform="matrix(0.4169 0 0 -3.8752 -267.8295 3111.9834)" gradientUnits="userSpaceOnUse">
	<stop offset="0" style="stop-color:#FFFFFF"/>
	<stop offset="1" style="stop-color:#696969"/>
</radialGradient>

<radialGradient id="path274_1_" cx="877.661376953125" cy="694.1171875" r="15.849100112915039" gradientTransform="matrix(-0.4169 0 0 -3.8752 848.3018 3106.6514)" gradientUnits="userSpaceOnUse">
	<stop offset="0" style="stop-color:#FFFFFF"/>
	<stop offset="1" style="stop-color:#696969"/>
</radialGradient>


<radialGradient id="path275_1_" cx="299.6828918457031" cy="273.7699890136719" r="91.23100280761719" gradientTransform="matrix(1.6042 0 0 -0.7914 -183.7809 533.9191)" gradientUnits="userSpaceOnUse">
	<stop offset="0" style="stop-color:#FFFFFF"/>
	<stop offset="1" style="stop-color:#696969"/>
</radialGradient>


<radialGradient id="path270_1_" cx="396.3450012207031" cy="32.54389953613281" r="128.2707977294922" gradientTransform="matrix(1.2471 0 0 -0.8235 -193.3944 702.9675)" gradientUnits="userSpaceOnUse">
	<stop offset="0" style="stop-color:#FFFFFF"/>
	<stop offset="0.2095" style="stop-color:#DADADA"/>
	<stop offset="0.5821" style="stop-color:#9D9D9D"/>
	<stop offset="0.8562" style="stop-color:#777777"/>
	<stop offset="1" style="stop-color:#696969"/>
</radialGradient>













<g class="currentLayer" style=""><title>Layer 1</title><path id="rect959" fill="#60585A" d="M132.802,664.502h11.311c5.057,0,9.156,4.1,9.156,9.156v65.62c0,5.058-4.1,9.156-9.156,9.156  h-11.311c-5.057,0-9.156-4.099-9.156-9.156v-65.62C123.646,668.602,127.745,664.502,132.802,664.502z"/><path id="rect958" fill="#60585A" d="M447.437,653.836h11.311c5.057,0,9.156,4.1,9.156,9.156v65.621c0,5.057-4.1,9.156-9.156,9.156  h-11.311c-5.058,0-9.156-4.1-9.156-9.156v-65.621C438.281,657.936,442.379,653.836,447.437,653.836z"/><g id="g786">
	<path id="path787" fill="#4A00AD" d="M326.02,71.38400000000001 c5.837,0.3430000000000001 11.878,0.41400000000000003 17.669,-0.36200000000000004 c3.8120000000000003,-0.7590000000000001 12.237,-4.018 8.165,-9.254 c-5.595,-5.377 -15.498,-4.553 -22.569,-3.95 l-0.548,-6.393 c9.736,-0.8 21.507,-1.058 28.627,6.75 c6.3790000000000004,10.154 -3.601,17.49 -12.825,19.216 c-6.167,0.782 -12.333,0.37300000000000005 -18.518,0.7340000000000001 L326.02,71.38400000000001 L326.02,71.38400000000001 z" stroke-width="0"/>
	<path id="path788" fill="#4A00AD" d="M326.02,37.65999999999997 c5.837,-0.3420000000000001 11.878,-0.41400000000000003 17.669,0.36300000000000004 c3.8120000000000003,0.7590000000000001 12.237,4.018 8.165,9.254 c-5.595,5.377 -15.498,4.553 -22.569,3.95 l-0.548,6.393 c9.736,0.8 21.507,1.058 28.627,-6.75 c6.3790000000000004,-10.155 -3.601,-17.49 -12.825,-19.216 c-6.167,-0.782 -12.333,-0.37300000000000005 -18.518,-0.7340000000000001 L326.02,37.65999999999997 L326.02,37.65999999999997 z" stroke-width="0"/>
	<path id="path789" fill="#4A00AD" d="M303.245,52.30200000000002 c2.202,0.21000000000000002 4.466,0.11900000000000002 6.673,0.131 c1.868,0.006000000000000002 8.14,0.9620000000000001 9.303,-1.064 c0.41000000000000003,-1.444 -0.28800000000000003,-3.097 -1.502,-3.904 c-2.941,-1.512 -6.912,-0.7420000000000001 -10.068,-0.5900000000000001 c-3.8600000000000003,0.18500000000000003 -9.098,0.6110000000000001 -10.277,-4.087 c-0.36500000000000005,-3.8360000000000003 2.024,-7.516 5.007,-9.742 c3.944,-2.426 8.436,-1.978 12.836,-1.423 c2.62,0.3480000000000001 5.233,0.7490000000000001 7.86,1.044 l-0.48300000000000004,4.055 c-2.636,-0.31400000000000006 -5.254,-0.7500000000000001 -7.885,-1.099 c-3.218,-0.3940000000000001 -6.911,-0.992 -9.856,0.7220000000000001 c-1.6960000000000002,1.197 -3.331,3.406 -3.3440000000000003,5.57 c-0.016000000000000004,1.612 5.018,0.976 5.934,0.93 c4.258,-0.22800000000000004 8.887,-0.915 12.751,1.287 c3.112,2.333 4.487,6.792 2.073,10.116 c-3.153,2.9939999999999998 -8.341,2.221 -12.348,2.234 c-2.207,0.011000000000000003 -4.471,-0.08100000000000002 -6.673,0.129 V52.30200000000002 L303.245,52.30200000000002 z" stroke-width="0"/>
	<g id="g790" stroke-width="0">
		<path id="path791" fill="#4A00AD" d="M299.814172,56.4994271999999 c-2.5547059999999995,-0.25816320000000004 -5.199193999999999,-0.15617280000000003 -7.763228,-0.16998400000000002 c-4.835402,-0.016998400000000004 -9.669637999999999,0.019123200000000003 -14.507372,0.03824640000000001 c-0.968946,0.005312000000000001 -1.9390580000000002,0.012748800000000003 -2.9068379999999996,0.04143360000000001 v-3.6567808000000004 c0.968946,0.029747200000000005 1.9390580000000002,0.03612160000000001 2.9068379999999996,0.042496000000000006 c4.836568,0.019123200000000003 9.67197,0.05524480000000001 14.507372,0.03824640000000001 c2.5640339999999995,-0.013811200000000003 5.208521999999999,0.08817920000000003 7.763228,-0.16998400000000002 V56.4994271999999 L299.814172,56.4994271999999 z" stroke-width="0"/>
		<path id="path792" fill="#4A00AD" d="M285.56915,53.81899199999998 c0.19822,-1.4076800000000003 0.09911000000000002,-2.8907904 0.10843800000000002,-4.3037824 c0.013992000000000001,-2.8185472000000003 0.015158000000000003,-5.638156800000001 -0.008162,-8.4588288 c-0.015158000000000003,-1.8676992000000001 -0.033814000000000004,-3.7353984000000002 -0.039644000000000006,-5.6020351999999995 c-0.0011660000000000002,-1.1176448 0.0034980000000000007,-2.2352896 0.005830000000000001,-3.3529344 h4.1299719999999995 c0.0023320000000000003,1.1176448 0.005830000000000001,2.2352896 0.0034980000000000007,3.3529344 c-0.0034980000000000007,1.8676992000000001 -0.023320000000000004,3.7353984000000002 -0.038478000000000005,5.6020351999999995 c-0.022154000000000004,2.8206720000000005 -0.022154000000000004,5.6392192 -0.009328000000000001,8.4588288 c0.011660000000000002,1.412992 -0.08978200000000001,2.8961024 0.10960400000000002,4.3037824 H285.56915 z" stroke-width="0"/>
	</g>
	<g id="g793" stroke-width="0">
		<path id="path794" fill="#4A00AD" d="M269.659,55.738000000000056 c0.233,-1.819 0.12100000000000001,-3.7350000000000003 0.14300000000000002,-5.564 c0.04900000000000001,-4.597 0.05500000000000001,-9.195 0.009000000000000003,-13.793 c-0.019000000000000003,-1.505 -0.04100000000000001,-3.011 -0.07,-4.516 H273.234 c-0.029000000000000005,1.505 -0.05300000000000001,3.011 -0.07,4.516 c-0.04600000000000001,4.598 -0.04000000000000001,9.196 0.008000000000000002,13.793 c0.022000000000000006,1.8290000000000002 -0.09100000000000003,3.745 0.14400000000000002,5.564 H269.659 L269.659,55.738000000000056 z" stroke-width="0"/>
		<path id="path795" fill="#4A00AD" d="M271.846,56.83600000000001 c-1.504,-0.16700000000000004 -3.054,-0.07900000000000001 -4.565,-0.12100000000000001 c-3.229,-0.14700000000000002 -6.067,-1.089 -6.49,-4.705 c-0.09800000000000003,-3.621 1.8900000000000001,-5.792 5.406,-6.463 c1.649,-0.20800000000000002 3.262,-0.14500000000000002 4.911,0.031000000000000007 l-0.37700000000000006,3.3770000000000002 c-1.302,-0.14600000000000002 -2.583,-0.21300000000000002 -3.887,-0.05400000000000001 c-1.7120000000000002,0.31500000000000006 -2.579,0.9380000000000001 -2.565,2.747 c0.132,1.637 1.703,1.5870000000000002 3.088,1.653 c1.475,0.030000000000000006 3.009,0.08600000000000002 4.479,-0.07800000000000001 V56.83600000000001 L271.846,56.83600000000001 z" stroke-width="0"/>
		<path id="path796" fill="#4A00AD" d="M270.40599999999995,47.16300000000001 c-1.304,-0.14500000000000002 -2.657,-0.07700000000000001 -3.967,-0.08700000000000002 c-2.814,-0.022000000000000006 -5.97,0.19600000000000004 -8.307,-1.637 c-1.9769999999999999,-2.09 -1.296,-4.663 -0.556,-7.142 c0.503,-1.677 0.932,-3.325 0.986,-5.084 c0.003000000000000001,-0.3440000000000001 0,-0.6840000000000002 -0.009000000000000003,-1.026 l3.525,-0.09000000000000002 c0.011000000000000003,0.40900000000000003 0.014000000000000002,0.8160000000000001 0.010000000000000002,1.225 c-0.06600000000000002,2.06 -0.562,3.992 -1.154,5.955 c-0.269,0.9 -1.017,2.566 -0.519,3.509 c1.19,1.353 4.451,0.8670000000000001 6.022,0.8540000000000001 c1.31,-0.011000000000000003 2.6630000000000003,0.05700000000000001 3.967,-0.08700000000000002 V47.16300000000001 L270.40599999999995,47.16300000000001 z" stroke-width="0"/>
		<rect id="rect797" x="9.364999771118164" y="709.2940063476562" fill="#4A00AD" width="2.509999990463257" height="3.2269999980926514" transform="matrix(-1,0,0,-1,282.65,766.12) " stroke-width="0"/>
	</g>
	<path id="path798" fill="#4A00AD" d="M231.33799999999997,44.101999999999975 c0,-7.421 5.542,-13.445 12.37,-13.445 s12.368,6.024 12.368,13.445 c0,7.422 -5.54,13.445 -12.368,13.445 S231.33799999999997,51.524 231.33799999999997,44.101999999999975 L231.33799999999997,44.101999999999975 zM235.283,44.44500000000005 c0,-5.055 3.775,-9.158 8.426,-9.158 c4.651,0 8.426,4.103 8.426,9.158 c0,5.057 -3.774,9.158 -8.426,9.158 C239.058,53.60400000000004 235.283,49.500999999999976 235.283,44.44500000000005 z" stroke-width="0"/>
</g><path id="rect317" fill="#60585A" d="M455.436,104.562h11.311c5.057,0,9.156,4.1,9.156,9.156v65.621c0,5.057-4.1,9.156-9.156,9.156  h-11.311c-5.057,0-9.156-4.099-9.156-9.156v-65.621C446.28,108.662,450.379,104.562,455.436,104.562z"/><path id="rect316" fill="#60585A" d="M124.639,107.849h11.311c5.058,0,9.156,4.1,9.156,9.156v65.621  c0,5.057-4.099,9.156-9.156,9.156h-11.311c-5.057,0-9.156-4.099-9.156-9.156v-65.621  C115.483,111.949,119.582,107.849,124.639,107.849z"/><path id="path184" fill="#000000" stroke="#000000" d="M300.31780321502686,840.2142048225403 c-120.595,2.519 -139.077,-19.113 -156.899,-22.676000000000002 c-17.817,-41.357 -21.2,-390.069 -10.511,-418.578 c7.991,-64.569 -5.265,-75.261 -9.266,-153.082 c-7.615,-90.884 10.469,-40.347 -4.734,-132.764 c23.1,-96.22 -20.409,-98.179 179.734,-107.327 C482.3118032150268,8.349204822540283 456.4488032150268,16.89720482254028 479.53880321502686,113.11520482254028 c-15.203,92.418 2.8810000000000002,41.881 -4.734,132.764 c-4.001,77.816 -17.257,88.508 -9.266,153.082 c10.689,28.505 7.307,377.216 -10.511,418.578 c-27.894,16.161 -101.812,22.676000000000002 -154.724,22.676000000000002 H300.31780321502686 z" class="" fill-opacity="1"/><path id="path272" fill="url(#path272_1_)" d="M150.576,300.639l22.967,87.928c0,0,0,164.867-3.28,167.608  c-3.282,2.747-29.529,49.458-29.529,49.458s6.562-299.497,9.844-305L150.576,300.639z"/><path id="path274" fill="url(#path274_1_)" d="M446.332,295.306l-22.967,87.928c0,0,0,164.868,3.28,167.608  c3.282,2.748,29.528,49.458,29.528,49.458s-6.561-299.497-9.843-305L446.332,295.306z"/><path id="path230" fill="#ffffff" stroke="#000000" stroke-opacity="0.4591" d="M263.0547569033049,44.84009779400428 c-3.3789882189003757,21.130399037749758 -3.132685694224442,222.11701490894538 2.2737497674879728,237.96401817544003 c5.222048014904302,-16.810708240439922 35.473809372593024,-32.42633740526046 41.225937352400756,-30.97547319889129 c5.875958135543385,-1.688606402584756 28.874150875129722,9.11805003432157 35.94007335811516,25.69313877672641 c1.9049748738717462,2.4113851330437215 5.713566834819891,-232.6784997060044 0.3068598157484066,-248.5265643215893 C325.9039920863237,10.494841233575208 269.8113755543104,10.494841233575208 263.0547569033049,44.83266835037253 V44.84009779400428 z" class="" fill-opacity="1"/><path id="path275" fill="url(#path275_1_)" d="M151.67270080375673,274.519 c0,0 69.892,-28.687 147.866,-29.42 c70.214,-0.6840000000000002 101.925,10.263 144.635,26.684 c-5.177,52 -10.354,101.261 -23.297,117.683 c-119.069,-30.108 -126.833,-30.108 -245.902,0 c-2.592,-16.414 -25.889,-112.211 -23.3,-114.942 L151.67270080375673,274.519 z" class=""/><path id="path185" opacity="0.62" fill-opacity="0.7044" stroke="#000000" d="M154.81398521804806,277.0268179646668 c0,0 68.027,-27.598610690089785 143.931,-28.303989797087542 c68.342,-0.6573088271134603 99.206,9.874262491884071 140.783,25.671619470380374 c-5.038,50.02653127436496 -10.077,97.4175572037694 -22.676000000000002,113.21595918835017 c-115.901,-28.96234363028544 -123.452,-28.961298624201003 -239.354,0.0010450060844411147 c-2.52,-15.797356978496307 -25.195,-107.9501735288514 -22.677,-110.583588861643 L154.81398521804806,277.0268179646668 z" class=""/><path id="path270" fill="url(#path270_1_)" d="M187.009,566.796c-13.192,63.318-23.744,184.683-23.744,184.683  c21.106,18.469,129.276,26.384,131.921,26.384c7.915,0,116.083-7.915,134.556-34.298c0-15.83-10.554-129.276-21.107-179.404  c-92.34,13.19-216.338,7.915-221.617,2.638L187.009,566.796z"/><path id="path188" opacity="0.62" fill-opacity="1" stroke="#000000" d="M274.5568666337311,777.7577777655046 c-2.570175753091402,18.57375149092854 -4.625867559099979,54.17313468191641 -4.625867559099979,54.17313468191641 c4.111791608803103,5.417497768166744 25.184009609543594,7.7390631212202265 25.699717546984267,7.7390631212202265 c1.542023852497651,0 22.614445851631114,-2.3218725196786543 26.213181502102223,-10.060935640898878 c0,-4.643437872732135 -2.056099802794527,-37.92064137741617 -4.111791608803103,-52.62685789079823 c-17.989394286103035,3.8693779772975256 -42.146271987017755,2.3218725196786543 -43.175443879576385,0.7740598954346106 V777.7577777655046 z" class="selected" fill="#ffffff" transform="translate(2.5641024112701416,0.8547008037567139) "/><path id="path189" fill="#333333" stroke="#000000" stroke-opacity="0.4591" d="M449.596,297.663l30.234,2.52  c0,0,15.118,15.117,5.04,22.676c-10.079,7.559-35.274-2.519-35.274-2.519V297.663z"/><path id="path190" fill="#333333" stroke="#000000" stroke-opacity="0.4591" d="M145.68,302.708l-30.235,2.519  c0,0-15.117,15.118-5.039,22.676c10.079,7.559,35.274-2.52,35.274-2.52V302.708z"/><path id="path304" fill="#F7FFD7" stroke="#000000" stroke-width="1.082" stroke-opacity="0.2516" d="M162.356,18.158  c-9.623,1.677-20.605,20.262-15.555,23.359c12.032-6.068,35.545-14.405,58.644-16.728c4.571-2.453,10.813-9.979,11.047-11.657  C200.616,12.23,172.854,16.093,162.356,18.158L162.356,18.158z"/><path id="path306" fill="#F7FFD7" stroke="#000000" stroke-width="1.082" stroke-opacity="0.2516" d="M424.853,12.921  c9.623,1.678,20.605,15.606,15.554,18.704c-12.03-6.067-35.544-8.004-58.643-10.328c-4.57-2.453-10.809-11.723-11.05-13.401  C386.593,6.992,414.355,10.856,424.853,12.921L424.853,12.921z"/><path id="path307" fill="none" stroke="#000000" stroke-opacity="0.3711" d="M226.037,11.071  c39.566-6.983,106.48-6.401,134.993-2.911"/><path id="path308" fill="none" stroke="#000000" stroke-opacity="0.3711" d="M226.037,13.98  c39.566-6.983,106.48-6.401,134.993-2.911"/><path id="path309" fill="none" stroke="#000000" stroke-opacity="0.3711" d="M226.037,17.471  c39.566-6.983,106.48-6.401,134.993-2.911"/><path id="path310" fill="none" stroke="#000000" stroke-opacity="0.3711" d="M226.037,21.544  c39.566-6.4,104.734-5.238,132.668-3.493"/><path id="path186" opacity="0.62" fill-opacity="0.6855" stroke="#000000" d="M152.294,315.304l17.637,80.625  c0,0,0,151.172-2.52,153.69c-2.521,2.519-22.676,45.351-22.676,45.351s5.038-274.625,7.559-279.67V315.304z"/><path id="path211" fill="#ffffff" stroke="#000000" d="M256.1979817156049,372.8908726991164 c-0.6715015043774878,11.02937357941071 -4.315368791596316,190.5553434928982 1.343272904858019,190.50820425239442 c20.108339261310398,11.37344974513917 63.79453218858256,10.13413090933032 80.17371699411171,-3.008047603429419 c5.046247438643838,-0.030620361352884554 2.0147744092355064,-179.48205386891556 1.343272904858019,-190.50820425239442 " class="" fill-opacity="1"/><path id="path187" opacity="0.62" fill-opacity="0.7484" stroke="#000000" d="M444.562,310.27l-17.636,80.625  c0,0,0,151.172,2.519,153.69c2.521,2.519,22.676,45.351,22.676,45.351s-5.038-274.625-7.559-279.67V310.27z"/><rect fill="#0b0bd5" stroke="#000000" stroke-opacity="0.46" stroke-dashoffset="" fill-rule="nonzero" id="svg_1" x="190" y="205" width="1" height="0" style="color: rgb(0, 0, 0);"/></g></svg>