<?xml version="1.0"?>
<svg xmlns:rdf="http://www.w3.org/1999/02/22-rdf-syntax-ns#" xmlns="http://www.w3.org/2000/svg" xmlns:osb="http://www.openswatchbook.org/uri/2009/osb" xmlns:cc="http://creativecommons.org/ns#" xmlns:xlink="http://www.w3.org/1999/xlink" xmlns:dc="http://purl.org/dc/elements/1.1/" id="svg2985" viewBox="0 0 1088.5 1378.1" version="1.1">
 <g id="g4147" transform="matrix(.83699 .12940 -.12940 .83699 -186.74 -62.039)">
  <path id="path3039" d="m1003.4 1526.6c-0.4319-0.6875-1.2513-15.2-1.8209-32.25-0.9051-27.096-1.262-31.336-2.8336-33.666-2.1921-3.2502-4.2421-4.1377-6.6188-2.8658-3.127 1.6736-15.497 15.553-20.624 23.142-5.2694 7.7989-10.799 13.89-12.609 13.89-2.5512 0 0.014-10.615 5.2013-21.524 12.227-25.713 15.972-34.917 15.972-39.251 0-5.6948-2.214-6.5708-10.27-4.0636-3.2496 1.0114-6.3183 1.8389-6.8193 1.8389-2.6331 0-0.052-3.6401 7.2205-10.184 13.558-12.199 15.204-13.91 24.349-25.316 4.8509-6.05 12.465-14.614 16.92-19.032 4.4548-4.4173 10.462-10.852 13.35-14.299 6.9067-8.2453 6.9671-10.657 0.4402-17.573-4.117-4.3624-5.0709-6.177-6.6218-12.597-2.8098-11.63-7.2342-23.561-12.793-34.5-2.7951-5.5-7.8606-16.3-11.256-24-3.396-7.7-8.7181-18.012-11.827-22.916-3.1354-4.9456-7.7254-14.297-10.307-21-5.407-14.037-9.4153-21.744-17.532-33.71-3.2182-4.7446-6.5732-10.37-7.4556-12.5-5.523-13.335-9.7476-20.624-19.924-34.374-3.5627-4.8139-9.4081-14.916-13.48-23.295-4.0386-8.3117-9.8647-18.39-13.295-23-3.8932-5.231-7.4785-11.612-9.8913-17.604-6.0902-15.125-9.8936-21.205-22.007-35.18-3.1364-3.6183-8.5737-11.314-12.083-17.1-6.0099-9.9111-11.879-18.038-22.258-30.821-2.4561-3.025-4.9637-7.075-5.5725-9s-1.908-4.9044-2.8872-6.6209c-1.7496-3.067-1.7331-3.2327 0.9559-9.6062 1.5048-3.567 5.0668-10.344 7.9155-15.06 6.4488-10.676 10.884-20.385 15.057-32.959 1.937-5.8372 5.1323-12.655 7.9668-17 6.9589-10.666 11.463-19.018 16.44-30.483 2.4384-5.6175 7.1495-14.449 10.469-19.625 7.5152-11.718 9.2431-15.102 14.74-28.866 2.4201-6.0596 7.7457-16.702 11.835-23.649 6.7021-11.387 11.002-20.596 16.022-34.315 0.9427-2.5761 3.5207-7.4791 5.7288-10.896 6.6517-10.291 13.465-22.95 16.912-31.421 1.7906-4.4 5.1011-10.529 7.3567-13.619 2.2556-3.0907 6.7007-9.1657 9.878-13.5 3.1772-4.3343 7.994-11.35 10.704-15.591 4.6452-7.2692 8.5434-10.94 15.928-14.998 1.7101-0.93977 3.5884-2.9648 4.174-4.5 1.6037-4.2039-0.7055-44.503-3.1586-55.12-1.0584-4.5809-1.9243-10.57-1.9243-13.308 0-11.667-3.3403-24.552-10.334-39.863-1.3818-3.025-3.2353-9.55-4.119-14.5-3.4339-19.236-6.039-27.122-13.048-39.5-2.0243-3.575-4.7697-10.687-6.101-15.805-1.3313-5.1178-3.5379-11.51-4.9036-14.205-3.5722-7.0495-13.344-23.009-16.091-26.281-1.2889-1.535-3.2893-5.9667-4.4453-9.8483-1.1559-3.8816-4.1478-10.951-6.6485-15.709-2.5007-4.7584-5.6589-10.902-7.0182-13.652-1.3594-2.75-4.3261-6.9139-6.5929-9.2531-3.772-3.8926-3.9862-4.3882-2.5268-5.8476 1.307-1.307 1.9992-1.378 3.8384-0.39369 1.7803 0.95277 2.4102 0.93164 3.0492-0.10227 0.5414-0.87601-1.2639-3.4967-5.5079-7.9956-3.9302-4.1662-6.8687-8.3374-7.7846-11.05l-1.4713-4.3576-5.2747 0.33376c-4.9748 0.31477-5.5093 0.10872-9.398-3.6227-2.2678-2.176-7.3017-5.6003-11.186-7.6095-5.9748-3.0901-7.4003-4.3466-9.25-8.154-1.2028-2.4756-2.1868-4.7422-2.1868-5.037 0-1.5466 14.128-6.5746 24.811-8.8303 6.7095-1.4166 18.068-4.82 25.242-7.5631 7.1735-2.7431 17.774-6.1272 23.556-7.5202 10.539-2.5391 18.266-5.9802 30.391-13.535 7.0468-4.3903 17.539-7.8836 31.146-10.369 4.7553-0.86872 12.284-3.1366 16.73-5.0398 11.35-4.8578 16.251-6.4195 27.124-8.6419 13.451-2.7494 24.309-6.5466 27.044-9.4573 2.369-2.5217 9.1624-4.9724 11.402-4.1131 0.7502 0.28788 1.0622 1.6557 0.7942 3.4818-0.3978 2.7101 0.1479 3.4365 5.516 7.3426 8.1055 5.8981 14.345 13.485 19.84 24.124 2.8291 5.4776 7.0734 11.61 10.985 15.873 13.69 14.918 16.116 18.999 20.42 34.342 1.2333 4.3974 4.6189 12.72 7.5237 18.495 7.2836 14.481 8.1508 16.775 11.505 30.444 2.0382 8.3065 4.7813 15.851 8.918 24.526 3.2859 6.8914 6.6397 15.23 7.4528 18.53s2.2565 9.1324 3.2076 12.961c0.9511 3.8285 4.0779 11.704 6.9484 17.5 7.6338 15.415 9.5758 22.153 10.96 38.025 0.4268 4.8955 1.8421 10.53 4.0901 16.283 5.2762 13.502 6.3949 18.984 6.3949 31.334 0 9.2504 0.5316 13.232 3.0758 23.04 3.8793 14.954 4.7608 27.487 2.5324 36.001-0.8845 3.3794-1.6082 6.6343-1.6082 7.2331 0 0.59881 3.8116 5.2438 8.4701 10.322 6.1325 6.6852 10.203 12.385 14.75 20.652 4.3888 7.9802 8.5566 13.875 13.84 19.575 10.799 11.65 14.994 17.597 21.231 30.099 3.4908 6.997 8.2915 14.488 13.138 20.5 5.3509 6.6378 9.465 13.216 13.742 21.974 6.3053 12.911 8.3407 15.945 18.047 26.899 5.9645 6.7311 10.415 14.42 15.687 27.101 1.7637 4.2425 6.1941 11.613 10.2 16.97 7.8929 10.553 10.748 15.715 14.55 26.312 3.6896 10.284 5.3782 13.279 12.184 21.616 8.2201 10.069 11.717 17.035 14.952 29.787 2.5084 9.8871 3.4182 11.823 10.6 22.56l7.8564 11.745-0.258 17.255c-0.4379 29.283-0.3125 31.906 1.9716 41.255 1.512 6.1892 2.4559 14.309 3.0221 26 0.6607 13.639 1.3147 18.592 3.3078 25.052 3.4925 11.32 4.536 17.13 5.6725 31.583 0.8032 10.214 1.7763 15.1 5.0788 25.5 3.1562 9.9394 4.298 15.48 5.0212 24.365 1.2645 15.536 1.5955 17.164 5.5479 27.283 4.5168 11.564 6.1999 18.236 7.481 29.656 1.161 10.349 2.2518 14.127 7.9574 27.561 3.874 9.1213 5.6194 15.479 8.2614 30.094 1.0256 5.6732 3.2829 11.985 7.5483 21.107 5.1883 11.096 6.5263 15.197 9.0786 27.826 1.6464 8.147 3.5712 15.19 4.2773 15.652 0.7061 0.4613 2.4089 1.0974 3.7839 1.4135 1.375 0.316 2.9769 0.7151 3.5597 0.8867s3.2103 3.4886 5.8388 7.371c6.2358 9.2105 10.956 13.438 23.061 20.656 6.3763 3.802 13.397 9.1861 19.515 14.966 5.2556 4.9654 14.709 13.238 21.007 18.383 12.788 10.447 22.019 20.268 22.019 23.429 0 0.9334-4.369 0.4274-20.26-2.3464-5.9182-1.033-11.626-2.3415-12.684-2.9078-1.0581-0.5663-3.3449-1.0296-5.0818-1.0296s-4.3022-0.9-5.7006-2c-2.7551-2.1672-8.2227-2.6324-11.339-0.9648-3.0095 1.6106-2.4713 6.0788 1.1476 9.5277 1.6951 1.6154 3.6783 4.3547 4.4073 6.0873 0.9441 2.244 2.2172 3.346 4.4259 3.8311 3.6415 0.7999 6.6602 4.9269 12.814 17.519 2.4953 5.1062 6.5633 11.203 10.188 15.271 6.1388 6.8878 8.6226 10.523 7.7714 11.374-0.2603 0.2604-3.5593 1.5623-7.331 2.8933-11.251 3.9703-19.48 3.0723-40.384-4.4076-6.0177-2.1533-11.863-3.3654-19.871-4.1205-15.902-1.4997-26.133-5.1544-32.045-11.447-4.3026-4.5799-9.7451-3.0574-13.187 3.6888-1.8382 3.6033-2.0519 5.2575-1.5387 11.912 0.3755 4.869 1.534 9.9567 3.1314 13.752 1.3945 3.3132 2.5355 6.256 2.5355 6.5396 0 0.755-8.8664-2.8659-13.503-5.5147-8.0414-4.5934-13.861-9.6259-20.608-17.82-3.7948-4.6088-10.508-11.28-14.918-14.824-9.9401-7.9891-14.384-13.833-20.857-27.429-4.6969-9.8649-5.5156-10.962-11.338-15.197-13.255-9.6408-15.18-11.393-20.646-18.786-3.0964-4.1885-6.4087-9.0475-7.3607-10.798-2.1924-4.0306-7.8356-6.5505-18.095-8.0799-10.216-1.523-17.901-4.2265-22.606-7.9527l-3.797-3.0073-0.695-14.273c-0.555-11.398-0.3778-15.583 0.8798-20.773 2.7339-11.285 4.5066-26.107 4.5256-37.84 0.014-8.9642 0.6378-14.02 2.9757-24.138 1.6266-7.0391 3.4527-18.811 4.0581-26.161 0.705-8.5596 2.181-17.431 4.1065-24.683 3.7081-13.966 4.7-19.655 5.8709-33.679 0.5569-6.6686 1.9187-14.15 3.4585-19 3.5032-11.034 6.1594-22.435 7.5716-32.5 0.8199-5.8429 2.894-12.805 6.6352-22.272 3.0073-7.61 6.7974-19.691 8.4706-27 1.9117-8.3505 4.5072-16.362 7.0392-21.728 5.1594-10.934 8.4734-21.004 11.025-33.5 1.4565-7.1336 3.5956-13.258 7.4624-21.366 8.1578-17.105 10.547-26.158 10.592-40.134 0.04-12.348-0.6564-15.182-5.1339-20.894-1.5547-1.9834-3.5775-5.8561-4.4951-8.6061-1.3346-3.9998-3.9138-7.3141-12.893-16.568-6.1738-6.3626-13.925-13.544-17.225-15.958-3.3-2.4144-10.95-9.1565-17-14.983-6.05-5.8261-15.725-13.92-21.5-17.988-6.6331-4.6713-14.367-11.429-21-18.35-5.775-6.0256-15.492-14.915-21.593-19.754-6.1012-4.8392-12.378-10.483-13.949-12.543-5.1847-6.7976-15.8-16.83-26.642-25.179-5.9102-4.5513-12.899-11.009-15.642-14.452-6.8829-8.642-15.311-16.436-24.356-22.523-10.945-7.366-10.922-7.6446 0.5488-6.8383 11.066 0.77785 12.974 0.16243 14.579-4.703 1.2565-3.8073 0.6659-6.1968-1.7744-7.1786-3.9365-1.5838-24.8-3.4642-38.528-3.4726-10.862-0.007-16.508-0.46495-21-1.7048-3.9679-1.0951-10.041-1.715-17.144-1.75-9.1919-0.0453-13.055 0.46861-23.5 3.1265-15.337 3.9026-21.506 4.6625-27.304 3.3633-3.4785-0.77955-5.6652-0.64776-9.8346 0.59272-4.1205 1.2259-7.4899 1.4396-14.555 0.92302-8.4412-0.61712-9.3621-0.50383-11.25 1.3841-1.1309 1.1309-2.0545 2.6187-2.0525 3.3062 0.01 2.9044 4.293 8.0237 8.0273 9.5918 4.4389 1.864 4.6923 2.5764 2.2124 6.219-5.9817 8.7862-9.5915 12.128-25.322 23.439-2.2946 1.65-7.439 7.275-11.432 12.5-9.5479 12.494-12.324 15.416-22.753 23.951-8.0972 6.6264-11.559 10.567-19.102 21.745-2.7055 4.0093-8.9852 10.401-23.982 24.408-3.7663 3.5178-9.366 9.771-12.444 13.896-3.0778 4.125-10.455 12.507-16.394 18.626-10.142 10.45-11.156 11.877-16.695 23.5-4.8862 10.253-7.1873 13.777-13.423 20.556-8.6697 9.4253-14.296 18.558-18.199 29.539-2.2618 6.3641-4.1281 9.3161-10.621 16.798-4.3322 4.9926-7.8767 9.6564-7.8767 10.364 0 0.7077 2.1557 4.8485 4.7904 9.2018 2.6348 4.3533 6.5201 11.065 8.6341 14.915 6.0214 10.966 10.811 16.748 18.95 22.873 4.1438 3.1188 7.8374 6.1609 8.2078 6.7603s2.9784 2.1241 5.7955 3.3882c3.036 1.3623 7.1583 4.4855 10.122 7.6687 2.75 2.9537 7.025 6.753 9.5 8.4431 5.3262 3.6369 15.894 7.4685 18.627 6.7537 2.8503-0.7454 10.009 5.1651 18.788 15.512 6.4586 7.6125 8.8003 9.5842 15.832 13.331 13.093 6.9758 18.213 11.217 26.333 21.81 6.0913 7.9468 9.1868 10.951 16.309 15.829 11.945 8.1811 15.446 11.23 24.27 21.13 6.1338 6.8821 9.6192 9.7287 18.312 14.956 12.09 7.2699 16.891 11.711 26.229 24.266 3.8078 5.1194 9.9645 11.65 14.908 15.812 8.6483 7.2827 13.845 13.514 19.932 23.9 4.9103 8.3782 7.634 11.348 16.823 18.343 10.418 7.9305 15.461 13.253 22.459 23.701 3.1228 4.6627 8.3537 10.963 11.624 14 15.789 14.663 18.047 17.356 23.501 28.022 2.9528 5.775 6.4226 11.892 7.7108 13.594 1.2881 1.7019 2.3421 3.7447 2.3421 4.5396 0 0.7948-3.2625 3.1885-7.25 5.3193-18.296 9.7768-30.389 19.782-42.067 34.804-3.7442 4.8163-8.4169 9.9913-10.384 11.5-11.012 8.4463-18.238 15.524-25.106 24.588-4.2317 5.5852-13.096 15.78-19.698 22.655-7.2994 7.6009-14.732 16.599-18.965 22.959-3.8286 5.7523-9.6113 13.177-12.851 16.5-12.62 12.945-21.639 24.741-27.175 35.541-0.9866 1.925-5.1309 7.4849-9.2094 12.355-4.0785 4.8704-8.401 10.377-9.6056 12.238-2.3834 3.6807-3.159 4.0647-4.3575 2.1571zm-393.99-820c-2.2934-1.2126-8.6532-6.9298-14.133-12.705-5.4798-5.775-13.402-12.975-17.605-16-4.2028-3.025-9.9385-7.1701-12.746-9.2114-2.8074-2.0413-8.3088-7.2549-12.225-11.586-3.9166-4.3309-10.496-10.729-14.621-14.217-12.747-10.781-15.95-14.149-23.28-24.485-3.9872-5.6222-12.375-15.253-19.161-22-6.6378-6.6-15.088-16.275-18.778-21.5-3.6899-5.225-10.098-13.55-14.24-18.5-4.56-5.4493-9.5609-12.945-12.676-19-2.8294-5.5-8.6825-16.13-13.007-23.623-5.2629-9.1191-8.0531-15.07-8.4395-18-0.53532-4.0589-0.31731-4.6188 3.0018-7.708 5.9798-5.5658 4.0743-11.577-2.9832-9.4111-2.3337 0.71622-4.6409 0.7489-6.9945 0.0991-4.2965-1.1863-7.1029-0.4188-10.667 2.9173-2.4157 2.2612-3.6065 2.5594-10.535 2.6377-7.1574 0.0809-8.2693-0.18935-13.276-3.2269-3.0057-1.8233-6.9117-4.5233-8.68-6-3.3569-2.8032-3.9187-4.7722-6.2338-21.848-0.58887-4.3434-1.7695-7.5207-3.9984-10.76-3.3706-4.899-3.3629-4.9153 2.81-5.9875 1.8495-0.32123 5.5098-2.1602 8.134-4.0865 2.6242-1.9264 5.0485-3.5025 5.3873-3.5025 0.33881 0 0.61602 1.0478 0.61602 2.3286 0 4.9898 6.1076 11.942 19.327 21.999 6.0413 4.5963 10.532 4.9388 13.601 1.0373 2.425-3.0828 2.6982-7.5966 0.58772-9.7071-0.81667-0.81668-4.4235-2.4628-8.0151-3.658-8.3369-2.7744-9.5-3.986-9.5-9.8971 0-6.1391 1.8386-7.8813 13.785-13.063 23.392-10.145 35.687-19.039 33.653-24.341-1.3524-3.5244-8.5212-4.6361-15.062-2.3358-6.4752 2.2772-18.869 2.9991-25.652 1.4942-5.317-1.1796-6.1848-1.7167-7.3748-4.5649-1.9174-4.589-1.7415-5.2208 1.9012-6.83 1.7875-0.78958 4.6-2.5644 6.25-3.944s3.3537-2.5106 3.786-2.5134c0.43228-0.003 6.3065-2.705 13.054-6.005l12.268-6 10.946 0.0435c11.553 0.046 18.92 1.03 20.648 2.7579 0.57234 0.57234 1.276 5.1682 1.5636 10.213l0.52299 9.1724-5.8601 5.1565c-11.919 10.488-16.697 16.045-20.339 23.656-3.1091 6.4973-3.6358 8.6725-3.9392 16.27-0.34416 8.6176 1.3867 21.391 4.3672 32.23 0.75621 2.75 1.8776 6.9533 2.492 9.3406 0.63399 2.4636 2.7394 6.1393 4.8688 8.5 2.0634 2.2876 5.6872 7.3094 8.0527 11.159 4.9776 8.1013 11.525 16.84 18.052 24.093 2.5209 2.8013 7.453 9.9515 10.96 15.889 7.4789 12.662 15.807 23.318 22.881 29.277 2.7811 2.3426 8.512 9.0926 12.735 15 4.2233 5.9074 13.588 16.826 20.81 24.264 7.222 7.4379 15.606 16.811 18.631 20.829 9.3582 12.43 19.386 19.446 35 24.485 4.125 1.3314 10.299 3.6001 13.72 5.0414 10.806 4.553 13.008 3.767 25.314-9.0335 9.7968-10.191 15.354-17.256 23.357-29.696 3.1609-4.9133 10.474-13.838 16.44-20.062 5.9104-6.1663 13.939-15.459 17.841-20.65 3.9023-5.191 9.96-11.91 13.462-14.932 8.7893-7.5838 20.346-19.256 26.742-27.009 2.9479-3.5736 10.136-10.785 15.972-16.026 5.8368-5.2407 15.122-14.817 20.632-21.28 5.5274-6.4824 14.316-15.292 19.602-19.648 5.2701-4.3433 14.032-12.703 19.471-18.576 5.4391-5.8736 14.479-14.234 20.088-18.578 5.6096-4.344 14.622-12.675 20.029-18.513 5.4061-5.8381 14.459-14.16 20.118-18.494 10.094-7.73 10.335-7.8486 12.75-6.2662 1.3539 0.8871 2.4616 2.1374 2.4616 2.7785 0 1.8346-19.706 19.942-28 25.728-9.3854 6.5479-18.916 16.016-26.551 26.376-3.2425 4.4-10.348 12.275-15.791 17.5-5.4426 5.225-13.897 14.739-18.788 21.142-4.8909 6.4034-9.8998 12.309-11.131 13.124-4.087 2.7045-17.302 16.151-21.359 21.734-2.1986 3.025-5.7577 8.425-7.9091 12s-7.9889 11-12.972 16.5c-8.8314 9.7472-17.909 21.462-20.533 26.499-0.7162 1.3747-6.7387 8.1521-13.384 15.061-9.2143 9.5806-13.741 15.276-19.077 24.001-3.8474 6.2914-10.23 14.914-14.184 19.161-9.2985 9.9879-17.146 19.879-21.247 26.778-1.8712 3.1484-9.1537 11.272-17.033 19-7.9886 7.8356-16.159 16.962-19.471 21.75-3.1391 4.5375-6.014 8.2297-6.3887 8.2048-0.37461-0.0248-2.5575-1.0374-4.8508-2.25zm14.67-65.754c0.825-0.56 2.4-1.4785 3.5-2.0412 1.5718-0.80394 1.4945-0.58265-0.36078 1.0335-1.2984 1.131-2.8734 2.0496-3.5 2.0412-0.62657-0.008-0.46422-0.47349 0.36078-1.0335zm-135.48-128.48c-2.1045-3.8364-4.7231-8.5503-5.8192-10.475l-1.9929-3.5 3.0936 3.5c3.8079 4.3081 9.4859 14.627 8.9437 16.254-0.21941 0.65822-2.1208-1.9421-4.2252-5.7785zm-21.887-32.432c-4.8748-5.2115-5.1217-5.7295-3.7578-7.8814 0.62973-0.99351 1.399-0.41356 2.9847 2.25 1.175 1.9737 3.073 5.1635 4.2178 7.0885 1.1449 1.925 1.8814 3.5 1.6368 3.5-0.24459 0-2.5313-2.2307-5.0816-4.9572zm-126.14-0.005c-14.577-5.1223-17.595-6.8402-24.45-13.917-3.6179-3.7346-8.3303-9.3343-10.472-12.444-4.7245-6.8598-4.4468-7.8948 3.762-14.024l5.8398-4.3602 12.16 0.48938c11.626 0.46787 12.305 0.61522 15.445 3.3532 1.8066 1.5751 3.9115 2.8639 4.6774 2.8639 2.2276 0 5.536 4.9915 5.5575 8.3849 0.0109 1.7133 1.4139 6.9401 3.1179 11.615 4.0407 11.086 4.4045 13.305 2.4475 14.929-0.87184 0.72356-1.5852 1.9196-1.5852 2.6579 0 1.7129-3.1906 3.4348-6.1843 3.3375-1.2737-0.0414-5.9157-1.3404-10.316-2.8865zm3.5-55.038c-0.825-0.53316-3.5632-0.97627-6.0848-0.98469-5.587-0.0187-25.627-6.2143-29.206-9.0294-2.4676-1.941-11.709-16.092-11.709-17.93 0-1.2994 11.1-4.9588 23-7.5822l10.5-2.3149 4.5 4.2722c2.475 2.3497 8.922 6.6014 14.327 9.4482 5.4047 2.8468 13.024 7.4212 16.931 10.165 4.1688 2.9277 8.6884 5.2426 10.938 5.6023 7.9764 1.2755 0.003 4.7328-17.946 7.7815-10.688 1.8154-13.18 1.9087-15.25 0.57122zm55.226-14.179c0.58027-1.7408 3.5556-3.3729 4.4743-2.4543 0.43802 0.43802-0.0764 1.4346-1.1432 2.2146-2.3593 1.7252-3.8623 1.8333-3.3311 0.23968zm211.77-5.0746c0-0.68926-1.575-3.4685-3.5-6.176-3.2868-4.623-3.5-5.4024-3.5-12.796 0-5.1717-0.53441-8.9071-1.5573-10.885-0.93479-1.8077-1.7724-6.8768-2.0954-12.681-0.37436-6.7268-1.2735-11.623-2.9543-16.089-1.3289-3.5305-3.3008-10.739-4.3821-16.019-1.0812-5.28-2.8293-12.075-3.8846-15.1-2.2346-6.4056-3.6886-22.397-2.3585-25.939 0.57229-1.5236 0.54059-3.4333-0.0845-5.0893-0.84582-2.2408-0.53484-3.3324 2.0117-7.0612 1.6567-2.4259 3.8126-6.8857 4.7909-9.9107 0.97833-3.025 2.1072-5.95 2.5086-6.5 0.40139-0.55 1.0047-2.1549 1.3406-3.5664 0.44381-1.8646 2.0364-3.2319 5.8236-5 4.5989-2.147 6.361-2.3987 14.963-2.1374 8.3621 0.25406 10.863-0.077 17.564-2.3251 4.2977-1.4417 9.2172-3.4875 10.932-4.5462 6.037-3.7269 5.8802-2.1958-0.544 5.3089-2.6995 3.1536-5.4451 7.4286-6.1013 9.5-0.65618 2.0714-2.3157 6.4662-3.6878 9.7662s-3.2177 7.8-4.1012 10c-0.88356 2.2-3.851 7.6-6.5944 12-4.8955 7.8518-5.0229 8.2594-6.8774 22-1.0392 7.7-2.0898 18.05-2.3346 23-0.5548 11.22-1.0381 13.5-2.8611 13.5-4.224 0-5.534 14.35-2.5889 28.36 2.2077 10.502 2.9003 29.64 1.0728 29.64-0.55 0-1-0.56394-1-1.2532zm-234.43-4.3106c-11.661-2.3157-15.89-5.0714-30.179-19.665-7.1468-7.2992-13.826-15.055-14.843-17.236-1.0166-2.1807-2.0719-7.0888-2.3451-10.907-0.64924-9.0739-0.007-9.5836 10.484-8.3177 10.065 1.2145 14.974 1.314 19.31 0.39131l3.5-0.74471 4.3378 7.9141c7.5189 13.718 11.746 19.471 16.521 22.487l4.5259 2.8586-2.5351 3.8308c-3.3952 5.1305-2.5541 8.7281 3.367 14.402 4.3294 4.1485 4.4414 4.3952 2.4748 5.4477-2.584 1.3829-5.8519 1.2798-14.62-0.46135zm13.948-38.816c-4.3889-2.3951-8.797-5.4495-9.796-6.7874-1.6934-2.2681-3.7044-13.411-5.3982-29.91-0.56897-5.5424-0.55218-5.5861 2.6602-6.9167 4.3334-1.795 10.83-1.6838 14.552 0.24902 1.6711 0.86776 7.8068 6.5134 13.635 12.546 8.4832 8.7807 11.018 12.095 12.712 16.621 1.1633 3.1093 2.1152 6.2263 2.1152 6.9267 0 0.70039-2.2678 1.8547-5.0396 2.5651-2.7718 0.71039-7.6661 3.0455-10.876 5.189-3.21 2.1436-6.0047 3.8918-6.2103 3.8848-0.20565-0.007-3.9648-1.9723-8.3536-4.3674zm722.11-69.413c-6.6965-6.9875-9.6292-10.677-9.6292-12.114 0-0.60931 1.8792-1.1178 4.25-1.1499 4.3275-0.0587 10.567-1.618 25.75-6.4353 6.9397-2.2018 11.345-2.835 24-3.4496 14.421-0.70034 16.384-1.0417 28.202-4.9033 8.1154-2.6518 17.517-4.8475 26.037-6.0806 11.018-1.5946 15.501-2.8047 25.798-6.9635 13.485-5.4462 22.404-7.0746 38.963-7.1136 5.3731-0.0127 11.995-0.86416 18-2.3147 10.816-2.6125 18.457-2.773 34.25-0.71944 8.6655 1.1268 12.469 1.169 19.613 0.21777 11.938-1.5895 21.044-1.4848 30.636 0.35236 5.8064 1.112 13.758 1.492 29 1.3858 11.55-0.0804 32.925 0.0251 47.5 0.2346 25.6 0.36793 26.796 0.4743 35.202 3.1315 4.7859 1.5128 8.975 3.1927 9.309 3.7332 0.7459 1.207 0.075 1.2009-5.0108-0.0452-5.4705-1.3403-24.216-1.2694-33.771 0.12771-6.5761 0.96155-9.908 0.86179-20.46-0.61259-10.024-1.4006-15.282-1.599-25.687-0.96889-14.682 0.88918-26.771 1.0285-46.582 0.53695-7.425-0.18423-24.75-0.12155-38.5 0.1393-22.628 0.42927-26.139 0.73346-37 3.2056-6.6 1.5022-17.798 3.155-24.884 3.6728-14.821 1.083-20.601 2.4121-36.797 8.4609-6.4244 2.3994-15.384 5.0652-19.911 5.9239-10.312 1.9562-17.412 4.1428-31.94 9.8373-6.3076 2.4724-15.293 5.247-19.968 6.1657-7.8748 1.5476-32.74 8.3492-38.426 10.511-2.2125 0.84119-3.0568 0.33474-7.9445-4.7654zm-44.348-40.957c-3.2111-6.9102-11.752-15.795-19.781-20.579-6.1871-3.6864-7.7225-5.2599-13.221-13.55-3.4217-5.1588-8.5967-11.958-11.5-15.11-2.9032-3.1518-6.0832-6.9133-7.0667-8.359-0.9834-1.4457-4.3713-4.3828-7.5286-6.5268-3.1572-2.1441-8.32-6.8364-11.473-10.427-5.748-6.547-12.223-10.697-16.69-10.697-2.5062 0-15.593-6.4164-27.769-13.615-8.573-5.0685-18.796-9.6837-25.25-11.4-2.8985-0.77065-11.788-1.1418-24.997-1.0438-13.292 0.0986-20.148-0.18978-19.502-0.82032 0.5482-0.53483 5.584-1.2353 11.191-1.5566 5.6067-0.32133 11.007-0.88377 12-1.2499 0.9933-0.3661 5.631-3.2329 10.306-6.3707 10.479-7.0332 14.272-8.933 24.697-12.37 4.5084-1.4865 9.2677-3.5447 10.576-4.5739 1.3084-1.0292 4.4938-5.8377 7.0787-10.685 2.5848-4.8478 8.253-13.662 12.596-19.587 8.3517-11.394 10.745-17.516 9.4816-24.252-1.3326-7.1038 1.9474-5.491 23.439 11.524 5.6299 4.4574 7.8518 7.1113 11.721 14 2.6255 4.675 5.9828 10.3 7.4606 12.5 4.5588 6.7868 9.5253 17.466 13.951 30 2.3305 6.6 5.9302 15.375 7.9993 19.5 2.069 4.125 6.7593 14.902 10.423 23.95 3.6635 9.0474 7.4981 17.822 8.5213 19.5 2.926 4.7973 5.879 15.625 9.0507 33.185 3.0335 16.795 3.0126 23.076-0.1016 30.615-1.6272 3.9396-3.0952 3.4164-5.6122-2zm446.22 1.9745c-3.3-0.15151-6.675-0.52115-7.5-0.82142-1.3222-0.4812-1.3167-0.68566 0.046-1.7245 3.122-2.3802 4.9541-6.2143 4.9541-10.368 0-3.4288-0.6244-4.8931-3.25-7.6218-5.3365-5.5462-17.755-21.257-21.273-26.913-1.8048-2.9018-4.9367-10.599-6.9597-17.105-2.8142-9.0508-4.8995-13.631-8.8778-19.5-9.2011-13.574-11.375-18.194-16.216-34.463-0.9479-3.1856-4.1709-9.69-7.162-14.454-7.6962-12.258-10.748-18.651-13.6-28.488-3.5132-12.118-5.5791-16.356-13.035-26.74-3.9645-5.5212-6.8107-10.59-7.2026-12.827-0.3564-2.0344-1.2859-4.7159-2.0655-5.959-1.0796-1.7215-1.1551-2.7504-0.3167-4.3171 2.3103-4.3167-0.7518-6.3832-17.773-11.994l-15.769-5.1979-18.5-0.21434c-32.186-0.37291-41.962-4.5476-46.509-19.86-4.0062-13.491 0.1501-31.101 10.296-43.622 8.1938-10.112 20.681-22.089 25.571-24.525 9.0035-4.4867 24.643-2.7706 24.643 2.704 0 3.5774-8.7904 13.614-18.958 21.645-10.905 8.6138-12.838 11.923-11.068 18.95 2.3242 9.2303 7.5109 16.192 12.064 16.192 1.4645 0 4.5908-1.4625 6.9473-3.25 18.674-14.165 24.836-16.367 32.102-11.47 5.3305 3.5922 8.1095 9.2172 7.4844 15.149-0.3044 2.8886-0.066 5.4757 0.5771 6.25 1.9679 2.3711 6.7748 1.5519 10.037-1.7106 2.8003-2.8003 2.9787-3.3922 2.3366-7.75-1.3592-9.2245-6.5857-16.341-16.01-21.798-3.9904-2.3109-6.2015-2.8917-11.056-2.9041-5.3479-0.0137-7.307 0.60884-16.512 5.247-10.261 5.1702-13.944 6.275-13.944 4.1826 0-1.9668 7.7624-12.499 11.779-15.981 9.6649-8.3804 12.478-10.292 13.798-9.378 0.7262 0.50273 3.1201 2.1965 5.3199 3.764 7.8 5.5581 17.349 7.0951 25.604 4.1212 5.7133-2.0583 6.2958-1.8955 8.0247 2.2422 3.2969 7.8905 9.6799 11.49 20.233 11.409 5.8943-0.0452 6.8394 0.23023 9.0786 2.6464 3.1344 3.3821 5.1636 9.9847 5.1636 16.801 0 12.304-7.3534 25.86-20.972 38.661-7.5321 7.0802-8.028 7.8024-8.028 11.691 0 2.3541 1.0187 6.1821 2.3581 8.8612 1.2969 2.5942 3.1609 8.0918 4.1422 12.217 2.3829 10.016 4.2358 14.479 11.42 27.5 3.3379 6.05 6.8085 13.25 7.7126 16 3.6002 10.952 12.047 24.557 23.153 37.291 3.5675 4.0907 9.1437 12.224 12.392 18.074 3.2477 5.8498 6.3318 11.311 6.8534 12.136 0.5217 0.825 1.9165 3.3 3.0997 5.5s3.9547 6.6613 6.159 9.9139c2.2043 3.2527 5.5403 10.228 7.4132 15.5 3.9046 10.991 11.289 24.555 18.254 33.53 4.3671 5.6271 8.0437 11.58 8.0437 13.023 0 0.52346-9.9654 0.4248-24.5-0.24255zm-808.52-68.86c0-0.41537 2.7243-6.3254 6.054-13.133 6.3235-12.929 10.946-26.774 10.946-32.784 0-1.9386-0.9418-5.3708-2.0929-7.6271-1.8115-3.551-1.9177-4.4297-0.7896-6.5376 0.7169-1.3394 2.1933-2.9115 3.281-3.4936 1.0877-0.58212 4.0305-2.9293 6.5395-5.216 8.5605-7.8018 32.633-21.568 37.718-21.57 1.4322-0.00053 3.4469 1.7288 6 5.15 6.3079 8.4527 7.7036 10.162 11.718 14.349 2.1089 2.2 4.9657 5.8 6.3485 8 5.4836 8.7241 15.425 16.21 24.888 18.741 2.4142 0.6457 4.3894 1.5741 4.3894 2.0631 0 0.92065-15.625 0.3193-22.24-0.85591-2.8573-0.50766-3.8772-0.30656-4.3218 0.8522-0.6289 1.639-0.6297 1.6393-16.938 7.5928-29.716 10.848-50.681 20.518-61.836 28.521-9.1394 6.5573-9.664 6.8802-9.664 5.9487zm-132-68.74c0-0.20765 0.7875-0.99515 1.75-1.75 1.5861-1.2439 1.6214-1.2085 0.37756 0.37756-1.3064 1.6658-2.1276 2.1955-2.1276 1.3724zm63.405-1.8724-1.905-2.25 2.25 1.905c2.1144 1.7902 2.7052 2.595 1.905 2.595-0.18976 0-1.2023-1.0125-2.25-2.25zm823.76-12.293c-1.6754-3.6773-1.3558-4.4618 0.4559-1.1188 0.846 1.5611 1.3511 3.0255 1.1224 3.2542s-0.9389-0.73225-1.5783-2.1355zm-584.12-64.838c0-0.20765 0.7875-0.99515 1.75-1.75 1.5861-1.2439 1.6214-1.2085 0.3776 0.37756-1.3064 1.6658-2.1276 2.1955-2.1276 1.3724zm-57.5-45.623c0.9955-1.1 2.035-2 2.31-2s-0.3145 0.9-1.31 2-2.035 2-2.31 2 0.3145-0.9 1.31-2zm653.52-1.6625c-1.1519-1.4644-2.3313-3.8269-2.6209-5.25s-1.6434-6.0573-3.0085-10.298l-2.482-7.7106 2.4897-4.7894c1.3694-2.6342 3.0606-7.827 3.7583-11.539 0.6977-3.7125 1.659-6.75 2.1362-6.75 4.019 0 13.082 11.149 15.32 18.845 1.8476 6.3555 1.0127 12.006-3.076 20.82-4.3437 9.3632-8.6109 11.638-12.516 6.6732zm-36.953-31.24c-1.733-1.733-1.8673-3.1784-1.5101-16.25 0.4396-16.088-1.037-27.485-4.9625-38.299-2.2048-6.0741-2.2718-6.759-0.8048-8.226 2.4477-2.4476 7.6817-4.3224 12.068-4.3224 3.5453 0 4.4843 0.59197 9.1217 5.75 13.487 15.001 16.588 29.193 10.386 47.523-4.0386 11.935-8.221 15.727-17.346 15.727-3.6298 0-5.5846-0.53486-6.9519-1.9022zm-39.619-7.4924c-6.3688-2.775-11.491-12.325-12.393-23.105l-0.5858-7h-3.9566c-3.7093 0-4.0467-0.25007-5.3974-4-0.7925-2.2-3.1283-8.3951-5.1908-13.767l-3.75-9.7669 3.1568-7.7331c3.0071-7.3664 3.4172-7.8662 8.6474-10.541 6.5737-3.3613 11.579-3.0672 19.491 1.1452 6.3484 3.3803 14.5 11.551 14.5 14.535 0 1.2315 1.0841 3.7085 2.4092 5.5045 1.5841 2.1471 2.9586 6.2548 4.0132 11.994 0.8822 4.8005 2.4981 11.855 3.5908 15.676 3.1047 10.857 2.3041 17.148-2.8993 22.786-4.9544 5.3675-14.704 7.2934-21.635 4.2735zm-75.474-14.83c-1.1401-1.2238-3.4659-5.1612-5.1684-8.75-5.2529-11.072-5.1362-26.245 0.2857-37.167 2.6756-5.3896 8.2115-10.858 10.996-10.861 1.31-0.002 6.573 1.6194 11.696 3.6023 7.495 2.9013 9.5087 4.1183 10.312 6.2323 0.5493 1.4449 2.3183 3.7613 3.9311 5.1477 3.3219 2.8556 5.3561 9.7523 6.4213 21.771l0.6426 7.25h-3.3504c-8.6392 0-19.26 4.3896-27.717 11.455-2.3334 1.9495-4.6324 3.5445-5.109 3.5445-0.4765 0-1.7992-1.0012-2.9393-2.225z" stroke="#0a9a20" stroke-width="5.2" fill="#0a9a20"/>
  <g id="g4141">
   <path id="path4129" d="m775.38 214.69 54.158-33.023 76.613-11.888 75.292 38.307-21.135 56.799c-35.902 13.48-71.573 27.572-106.99 42.269-39.892 16.552-79.463 33.869-118.88 51.516-18.526 8.293-37.019 16.659-55.479 25.097l-30.381-29.06 22.456-76.613 34.344-29.06 70.009-34.344" fill="#fff"/>
   <g id="g4137" stroke="#f00" stroke-width="1px">
    <path id="path4115" d="m709.33 358.68 118.22-54.818 101.71-34.344 71.33-9.2464 1.3209-16.511-36.986-12.549-8.586 17.172-13.87-1.3209-15.851 15.851-17.832-5.2837-7.9255 11.888-17.832-5.9441-10.567 15.191-21.135-5.2837-3.3023 9.9069-11.228 12.549-13.87-9.9069-10.567 17.832-20.474-3.3023-10.567 13.87h-18.493l-5.2837 18.493-29.721 0.66046-7.9255 20.474-18.493-4.6232-3.3023 17.172-5.2837-5.2837-22.456-1.9814-6.2744 27.079z" fill="#f00"/>
    <path id="path4113" d="m680.27 280.08 21.135 1.9814 3.9628-15.191 9.2464-13.87 9.2464-3.3023 12.549 3.9628 14.53-21.135 7.265-8.586 11.888-1.3209 17.172 6.6046 1.9814-11.228 8.586-9.9069 16.511-4.6232 15.851 9.2464 7.265-13.87 8.586-11.888 18.493 6.6046 9.9069 5.9441 7.265-11.888-50.195-7.265-59.441 18.493-44.911 25.758-42.269 31.702z" fill="#ff2a2a"/>
   </g>
  </g>
  <g id="g4133" fill="#fff">
   <path id="path4121" d="m858.65-38.837-63.535 32.903-27.156 47.657 4.6854 57.23 52.607 37.882 62.114-6.4936 49.074-24.727 34.774-50.257-4.0902-40.233-32.455-46.256-55.668-10.414-20.35 2.7084"/>
   <path id="path4117" d="m590.45 78.64-52.837 43.59-15.851 50.195 15.851 52.837 56.799 25.097 56.799-18.493 40.948-33.023 22.456-54.158-11.888-36.986-39.628-36.986-54.158 1.3209-18.493 6.6046"/>
  </g>
  <path id="path3043" fill="#0dbab9" d="m574.83 171.06c-9.773-1.0398-14.267-2.5535-18.254-6.1488-5.033-4.5378-9.7438-14.14-9.7449-19.864-0.001-6.5686 10.98-30.214 16.243-34.976 3.0807-2.7875 14.19-9.1247 20.033-11.428 3.8163-1.5042 7.4-1.891 17.524-1.891h12.726l4.9866 3.4581c9.7067 6.7314 20.983 17.073 22.965 21.061 1.4821 2.9826 1.9733 5.988 1.9581 11.981-0.033 13.019-0.31202 13.31-28.936 30.209-8.5659 5.0568-12.328 6.6882-17 7.3725-5.8947 0.86329-15.597 0.96095-22.5 0.22646zm21.655-15.703c21.34-9.4618 23.919-12.352 23.736-26.605-0.2052-16.016-2.9693-21.002-11.641-20.997-7.2635 0.004-25.018 3.5831-29.749 5.9966-4.091 2.0871-7.7886 7.3771-9.973 14.268-0.76024 2.3982-2.2102 4.2928-3.9898 5.213-4.8556 2.5109-5.362 7.4697-1.5451 15.129 4.61 9.251 12.031 13.959 19.397 12.304 1.9986-0.44906 8.1932-2.838 13.766-5.3087zm237.18-102c-6.8388-2.4426-13.518-8.2608-16.534-14.401-2.7121-5.5229-2.7997-6.2021-2.7997-21.701 0-13.176 0.3001-16.548 1.7003-19.104 2.7413-5.0048 12.327-13.054 20.095-16.875 9.0223-4.4374 32.253-9.9224 38.296-9.0422 4.9417 0.71991 25.008 12.103 27.706 15.717 3.7214 4.9845 4.4684 24.518 1.2353 32.304-3.4695 8.3558-15.411 19.076-27.608 24.784-4.0278 1.8851-36.505 10.098-38.245 9.6718-0.099-0.0241-1.8289-0.63317-3.8454-1.3534zm42.04-14.037c3.4515-1.7849 6.7623-6.743 11.396-17.065 4.6466-10.352 5.1626-12.662 3.7703-16.881-1.5794-4.7856-7.2066-9.5776-17.008-14.483-8.7586-4.3838-14.046-5.1659-19.206-2.8409-5.1444 2.3182-17.361 12.112-21.326 17.097-7.2754 9.1464-7.2035 8.5956-2.4323 18.636 4.9628 10.443 8.1185 13.795 14.636 15.548 6.8065 1.8302 26.624 1.8237 30.17-0.01z"/>
  <path id="path3035" fill="#070e08" d="m997.65 1546.3c-1.1833-1.1833-1.5714-3.6814-1.5714-10.114 0-6.2796-0.9584-12.669-3.6172-24.115-3.6537-15.729-3.6808-16.174-1.7588-28.949 0.8972-5.9639-0.9785-5.622-9.5288 1.737-6.4633 5.5627-15.276 17.092-23.307 30.489-2.3564 3.9313-3.1522 4.5238-6.0757 4.5238-4.0396 0-7.7128-3.4231-7.7128-7.1877 0-1.4074 1.5355-7.6784 3.4122-13.936 3.7182-12.397 5.1184-18.95 6.1481-28.776 0.4563-4.3535 1.7525-8.4743 4.0552-12.892 5.4395-10.436 4.8323-10.905-8.2349-6.3558-4.8424 1.6857-11.076 4.9092-15.444 7.9867-9.3028 6.5541-13.057 6.7574-11.517 0.6236 0.6424-2.5593 20.477-22.981 31.795-32.736 3.6837-3.175 8.8549-8.7475 11.492-12.383 8.808-12.145 14.313-18.302 22.194-24.822 4.3013-3.5585 9.6293-8.8659 11.84-11.794 5.8018-7.6844 11.331-18.743 11.915-23.83 0.2776-2.4188 0.9552-5.5916 1.5058-7.0508 0.8687-2.3025 0.2122-4.1601-4.9705-14.063-3.5982-6.8754-6.4288-13.77-7.1221-17.347-3.4075-17.583-5.8253-23.709-14.338-36.332-5.4919-8.1434-9.8812-17.18-11.708-24.104-1.2208-4.6273-7.0074-16.06-15.691-31-2.7172-4.675-6.0036-11.2-7.3032-14.5-4.3572-11.064-8.7707-18.929-16.554-29.5-4.7352-6.431-10.161-15.538-14-23.5-3.448-7.15-7.9015-15.25-9.8967-18-8.6669-11.946-12.617-18.679-17.013-29-5.1546-12.102-7.9984-16.911-16.737-28.308-3.2182-4.1971-7.9391-11.695-10.491-16.661-6.3851-12.427-9.1449-16.242-20.224-27.954-6.6197-6.9979-11.116-12.866-14.445-18.854-7.6242-13.711-14.001-21.86-19.346-24.722-2.5677-1.375-4.8432-3.0341-5.0566-3.6868-0.2135-0.6527 1.0264-2.4472 2.7553-3.9876 6.8462-6.1 13.153-17.425 19.029-34.172 1.6702-4.7595 6.0805-13.829 9.8007-20.154 7.6135-12.944 8.185-14.148 12.343-26 3.4609-9.8649 6.0226-14.549 13.016-23.799 4.8715-6.4434 10.294-16.951 16.322-31.626 1.5645-3.8091 5.4551-10.901 8.6459-15.76 7.3718-11.227 9.7633-16.049 13.795-27.814 3.9384-11.494 5.2532-14.139 12.922-25.997 3.9065-6.0406 7.2668-12.918 9.7085-19.87 4.8297-13.751 6.3429-16.748 14.083-27.896 4.0161-5.7836 8.5654-14.236 12.111-22.5 5.6412-13.151 5.7509-13.312 16.87-24.897 11.79-12.283 17.31-20.357 17.325-25.339 0-1.65-0.8909-5.3673-1.9906-8.2607-2.4118-6.3455-2.5219-11.865-0.4176-20.927 2.1128-9.0978 1.3393-14.364-4.6508-31.662-4.0154-11.595-4.9061-15.414-4.933-21.15-0.049-10.476-2.2983-19.195-7.9133-30.673-3.7465-7.6587-5.6795-13.299-7.4804-21.827-2.905-13.757-5.3689-20.612-10.265-28.56-9.0051-14.619-12.268-21.009-13.913-27.249-2.3981-9.0976-7.2873-18.65-16.055-31.37-5.4879-7.9612-7.7111-12.179-8.7362-16.573-2.1005-9.0041-6.0767-15.248-9.7097-15.248-2.7125 0-18.235 7.4566-24.792 11.91-3.2696 2.2203-9.409 8.0876-13.643 13.038-4.2342 4.9508-11.927 12.402-17.095 16.559-9.0631 7.2895-12.852 11.684-24.747 28.7-2.6725 3.8232-7.7967 9.198-11.917 12.5-9.9164 7.9466-13.791 12.033-21.989 23.193-3.8788 5.28-11.82 14.575-17.647 20.655-7.6712 8.0045-12.527 14.213-17.595 22.5-5.1475 8.4161-9.918 14.489-18.026 22.947-6.5624 6.8455-13.775 15.684-17.816 21.832-3.7345 5.6818-10.923 14.742-15.974 20.133-5.4529 5.8204-11.164 13.201-14.058 18.168-8.7584 15.033-11.441 18.616-18.366 24.53-8.6105 7.3536-13.846 13.572-20.491 24.335-3.0406 4.9255-9.3044 12.705-14.895 18.5-5.3062 5.5-11.664 12.138-14.13 14.75-2.4651 2.6125-5.1766 4.75-6.0257 4.75-0.84909 0-3.568-2.8125-6.042-6.25-6.1718-8.5754-12.619-14.622-22.874-21.456-6.3524-4.2326-11.481-8.8943-19.025-17.294-5.9662-6.6428-13.993-14.245-19.005-18-11.237-8.4182-13.75-10.862-21.076-20.5-3.3448-4.4-10.67-12.5-16.278-18-5.6082-5.5-13.805-14.95-18.216-21-4.9768-6.827-11.789-14.484-17.957-20.183-9.1181-8.4258-10.424-10.116-15.84-20.5-3.5316-6.7716-9.2384-15.496-14.209-21.722-9.5846-12.006-10.107-12.922-15.353-26.886-4.8802-12.992-7.3002-17.785-9.3837-18.585-0.89341-0.34283-3.8566-0.62333-6.5848-0.62333s-8.2039-0.63819-12.168-1.4182c-3.9643-0.78002-9.4578-1.718-12.208-2.0845-2.75-0.36644-7.9047-1.821-11.455-3.2324-6.3072-2.5074-6.5247-2.5256-9.5-0.79267-4.6084 2.684-16.476 6.5278-20.155 6.5278-4.8887 0-7.8453-1.4402-17.492-8.521-4.8346-3.5485-12.589-8.6955-17.232-11.438-13.329-7.8728-15.86-12.24-16.06-27.714-0.12596-9.7411 1.3997-12.563 8.7035-16.096 2.9815-1.4424 4.6698-2.9 4.6333-4-0.0316-0.95189-2.9791-3.9807-6.55-6.7307-9.1979-7.0835-14.269-12.161-14.982-14.999-1.4864-5.9224 9.3331-19.98 17.089-22.203 2.2-0.63069 8.8375-1.4595 14.75-1.8418 6.7968-0.43946 10.794-1.1108 10.868-1.8256 0.26969-2.5733-0.51756-4.3972-4.6655-10.809-9.7732-15.108-9.8414-16.618-1.1425-25.317 7.8537-7.8537 11.952-9.3634 20.99-7.7323 7.9009 1.426 18.362 1.3578 19.527-0.12713 0.49378-0.6297 1.1575-3.4575 1.475-6.284 0.64588-5.7508 5.4169-17.085 8.1325-19.319 2.7768-2.285 8.1689-1.4724 20.065 3.0238 18.248 6.8967 18.767 7.3324 27.769 23.292 6.6088 11.716 14.096 20.648 17.297 20.635 1.0636-0.004 4.8588-0.90076 8.4338-1.9924 12.169-3.7156 19.207-2.1151 28.859 6.5628 6.2222 5.5943 8.5293 10.303 7.8782 16.08-0.6541 5.8031-9.3352 20.211-19.195 31.858-12.19 14.4-15.322 23.31-13.355 38 1.0156 7.586 5.4036 16.347 9.5476 19.062 2.3278 1.5252 3.1072 5.7996 1.2652 6.9381-2.0786 1.2847-0.80055 3.7088 5.6658 10.746 7.3098 7.9551 11.363 13.855 16.317 23.754 4.162 8.3159 10.596 17.458 19.203 27.287 3.7506 4.2829 9.9069 12.383 13.681 18 5.1922 7.7283 10.019 13.181 19.841 22.412 8.8874 8.3533 14.842 14.943 18.886 20.902 8.2388 12.139 15.605 19.04 32.394 30.352 17.389 11.716 27.472 16.958 34.137 17.748 4.8623 0.57587 5.0188 0.50791 9.427-4.0926 2.4654-2.573 7.0067-8.6 10.092-13.393 3.0851-4.7933 9.7708-12.99 14.857-18.215s12.087-13.708 15.558-18.85c4.1397-6.1342 9.238-11.981 14.823-17 10.899-9.7941 14.806-13.8 23.155-23.739 8.2803-9.8565 11.055-12.69 22.376-22.845 4.8646-4.3638 12.152-12.089 16.195-17.167 4.0428-5.0782 10.623-12.083 14.622-15.566 9.5076-8.2801 20.991-19.825 27.41-27.556 5.0979-6.1403 7.9921-8.7993 20.846-19.152 3.6704-2.9562 10.758-10.06 15.75-15.786 5.703-6.5412 12.562-13.019 18.454-17.428 5.1573-3.8594 11.59-9.3557 14.295-12.214 5.8323-6.1627 16.017-19.595 16.017-21.125 0-1.2077-18.426-21.597-20.716-22.924-2.4312-1.4085-28.461 6.9377-43.284 13.879-7.425 3.4768-18 7.6596-23.5 9.2951-14.345 4.2657-19.678 6.4549-29.419 12.077-8.4258 4.8628-15.724 8.0227-31.199 13.508-4.1896 1.485-11.165 4.7368-15.5 7.2263-12.365 7.1003-18.223 9.9064-27.542 13.193-11.695 4.1249-18.912 7.907-27.84 14.591-8.5632 6.4103-19.862 12.372-25 13.192-4.0224 0.64128-12.864-2.2604-14.042-4.6082-0.4138-0.825-1.748-5.8416-2.9649-11.148-1.3699-5.9738-3.5009-11.877-5.5956-15.5-7.2365-12.517-9.9464-19.904-12.786-34.852-2.0669-10.88-4.976-21.97-9.0498-34.5-2.0245-6.2268-3.6842-13.756-4.0783-18.5-0.3655-4.4-1.7253-12.95-3.0218-19-3.6866-17.203-3.345-32.895 0.84649-38.884 3.2434-4.6342 7.9131-22.616 5.8731-22.616-0.59409 0-2.3405-1.3315-3.8808-2.9589-2.2687-2.3968-4.1304-3.1667-9.8007-4.0528-9.4225-1.4724-13.935-4.2845-29.578-18.432-14.692-13.288-16.147-15.54-17.801-27.556-0.56768-4.125-1.9491-11.325-3.0698-16-2.8194-11.761-2.6146-15.011 1.8708-29.675 2.1574-7.0536 4.6656-15.718 5.5737-19.253 2.7798-10.823 5.5316-14.703 23.194-32.702l16.81-17.131 10-3.6947c5.5-2.0321 14.947-6.0232 20.993-8.869l10.993-5.1744h25.007c29.109 0 26.031-0.88898 42.948 12.403 20.947 16.459 23.12 19.016 27.503 32.347 1.5685 4.7704 2.7087 6.745 3.8878 6.7331 2.1301-0.0216 11.168-8.4473 11.168-10.411 0-0.81559-1.125-3.1407-2.5-5.1668-3.1589-4.6548-3.1499-6.2036 0.04-7.0043 2.7481-0.68972 5.9591 1.4467 6.9722 4.639 0.9289 2.9267 2.7523 2.8844 9.3725-0.21748l6.3047-2.9541-0.6772-6.7432c-0.5591-5.5672-0.3938-6.9783 0.9475-8.0916 2.1969-1.8232 3.4077-0.4193 4.3379 5.0299 0.513 3.0048 1.3072 4.5261 2.4809 4.7521 1.669 0.32142 18.569-9.7214 20.719-12.313 0.7588-0.91435 0.342-4.82-1.4692-13.765-2.7675-13.668-3.1031-18.796-1.4344-21.914 0.6019-1.1246 1.98-5.2576 3.0624-9.1843 2.0346-7.3814 11.984-27.493 18.334-37.059 5.9575-8.9753 15.114-16.613 32.166-26.831 24.356-14.594 28.806-16.529 42.9-18.661 7.0258-1.0624 23.408 0.0361 36.224 2.429 18.586 3.4702 30.244 10.111 50.25 28.622 20.785 19.232 23.294 23.687 23.443 41.618l0.094 11.259 3.6569 3.0143c2.0113 1.6579 3.9246 3.8574 4.2516 4.8879 0.3494 1.1008 4.3958 3.764 9.81 6.4566 5.1071 2.5399 12.03 7.0439 15.529 10.103 3.4725 3.036 6.6989 5.52 7.1696 5.52s1.5895 2.2088 2.4862 4.9084c0.9204 2.7711 3.1405 6.3634 5.0986 8.25 7.4977 7.224 22.281 36.94 28.03 56.342 0.8147 2.75 4.6143 11.3 8.4436 19 5.4006 10.86 7.9967 17.701 11.575 30.5 2.5684 9.1882 6.2885 19.824 8.3947 24 6.3778 12.647 10.158 26.412 11.077 40.34 0.4414 6.6881 0.5357 13.904 0.2096 16.036l-0.5929 3.8759 6.398-0.51537c3.5188-0.28345 9.7729-1.2703 13.898-2.193 4.125-0.92272 14.475-2.2926 23-3.0442 8.525-0.75161 20-2.2791 25.5-3.3945s16.75-2.9955 25-4.1782c9.9077-1.4203 19.067-3.4739 26.98-6.0493 14.156-4.6075 24.207-7.04 59.125-14.309 5.5205-1.1493 59.061-4.1064 68.396-3.7775 0.825 0.0291 15.45 0.3107 32.5 0.62586 17.05 0.31517 36.218 1.0659 42.595 1.6683 8.3825 0.7918 14.595 0.7933 22.424 0.005 15.284-1.5382 22.352-1.3541 35.352 0.92052 6.254 1.0943 13.566 1.9896 16.25 1.9896 4.1646 0 4.8791-0.28452 4.8791-1.9428 0-1.0686-0.8677-3.4311-1.9282-5.25s-3.7207-7.8072-5.9115-13.307c-2.1908-5.5-6.3254-14.228-9.1879-19.395-2.8625-5.1673-8.1009-16.642-11.641-25.5-3.5398-8.8577-9.0193-20.83-12.176-26.605-6.4332-11.767-9.8339-19.177-13.582-29.592-2.9591-8.2227-25.312-52.99-28.452-56.981-2.4641-3.1326-2.7915-8.626-0.6213-10.427 2.0806-1.7268 4.2626 0.2177 5.0693 4.5175 0.3422 1.8241 2.4028 5.9414 4.5792 9.1495s5.5399 8.2232 7.4744 11.145c1.9573 2.9558 5.26 10.618 7.4464 17.277 4.2497 12.942 7.0058 18.852 14.808 31.757 2.8466 4.7082 6.4051 12.553 8.1652 18 3.7392 11.572 7.9384 20.084 14.858 30.117 4.0126 5.8181 6.0178 10.226 9.0989 20 4.1182 13.064 7.3172 18.86 16.027 29.037 15.536 18.153 16.773 20.619 13.51 26.928-2.0137 3.894-4.003 4.3846-8.4926 2.0942-2.1119-1.0774-7.1484-2.9324-11.192-4.1222-6.4982-1.9119-10.489-2.2191-34.352-2.6443-14.85-0.26461-35.96-0.40226-46.91-0.3059-14.778 0.13005-22.511-0.26215-30-1.5216-7.9539-1.3377-12.312-1.5202-20.59-0.86209-12.864 1.0227-21.205 1.0137-40.104-0.0435-13.028-0.72874-15.618-0.59147-24 1.2721-5.5481 1.2335-14.983 2.3257-23.04 2.667-15.031 0.63682-21.276 2.0103-37.856 8.3258-6.6262 2.524-13.82 4.4406-19.5 5.1951-10.605 1.4087-17.571 3.048-30.5 7.1776-7.9044 2.5247-12.019 3.1723-24.5 3.8558-15.022 0.82266-20.75 1.9172-34.206 6.5363-3.9632 1.3605-9.3632 2.7169-12 3.0144-9.1037 1.0268-11.294 1.5276-11.294 2.5818 0 1.3694 12.376 16.215 15.692 18.824 1.3985 1.1 2.8838 1.7893 3.3006 1.5316 1.4571-0.9005 31.59-9.2784 41.127-11.434 5.2908-1.1961 13.166-3.5468 17.5-5.2237 9.5369-3.6898 27.154-9.0521 37.38-11.378 4.125-0.93814 10.687-2.9676 14.582-4.5099 12.076-4.7818 25.313-7.8734 38.418-8.9732 6.875-0.57694 16.55-1.8918 21.5-2.922 15.478-3.2211 25.48-4.1782 41.5-3.9714 8.525 0.11008 23.375 0.20187 33 0.20398 9.625 0.002 22 0.022 27.5 0.0442s15.437-0.33512 22.081-0.79406c9.4584-0.65327 15.212-0.45388 26.5 0.9184 11.102 1.3496 15.914 1.5252 20.919 0.76353 11.262-1.7141 25.786-1.4578 38.046 0.67131 6.2997 1.094 16.854 2.2521 23.454 2.5736 6.6 0.32142 13.411 0.83693 15.136 1.1456 1.7454 0.31238 3.4247 0.0932 3.7878-0.49434 0.9114-1.4746-2.6808-8.2138-9.394-17.624-3.139-4.4-6.5622-9.575-7.6072-11.5s-2.4071-4.175-3.0269-5c-0.6199-0.825-3.3126-6.9-5.9839-13.5s-6.978-15.433-9.5705-19.63c-2.5925-4.1965-5.3648-9.1885-6.1608-11.093-2.575-6.163-17.598-29.042-24.805-37.777-8.4452-10.235-15.827-22.178-19.162-31-1.3515-3.575-5.6395-12.8-9.5289-20.5-4.3035-8.5197-8.0223-17.539-9.5-23.04-1.3356-4.9718-3.3857-10.916-4.5559-13.21-3.8872-7.6195-3.2104-9.6256 6.6741-19.783 10.102-10.382 15.115-18.088 18.098-27.822 3.3206-10.837 2.4162-20.296-2.6984-28.22l-2.7012-4.1842-9.047-0.40734c-11.075-0.49865-14.48-2.4668-18.155-10.492-1.3448-2.9373-2.5245-5.3403-2.6217-5.34-0.097 0.00028-2.544 0.90028-5.4374 2-10.246 3.8941-22.754 1.5917-29.164-5.3682-1.3334-1.4478-3.1334-2.6027-4-2.5664s-5.1757 2.8959-9.5757 6.3546c-8.6469 6.7972-17.535 17.986-17.827 22.441-0.1572 2.3993 0.1256 2.6145 3.1251 2.3778 1.8138-0.14317 8.109-2.7834 13.989-5.8672 10.114-5.3044 10.993-5.5795 16.29-5.0992 11.908 1.0798 22.431 10.703 24.357 22.274 0.8711 5.235-2.1905 9.7344-6.2998 9.2582-2.4783-0.28719-2.6149-0.57999-2.3117-4.9533 0.3928-5.6632-2.1651-11.19-7.242-15.647-7.8752-6.9145-16.857-4.7854-32.458 7.6939-6.9736 5.5784-9.9665 6.2575-13.223 3.0006-3.1167-3.1167-6.2044-10.809-6.308-15.716-0.1002-4.7441-1.2612-3.3941 16.776-19.507 8.647-7.7247 13.916-14.718 13.449-17.852-0.5854-3.9325-5.2203-6.2551-13.296-6.6629-10.664-0.53853-16.188 2.216-27.23 13.579-15.542 15.994-20.583 23.611-23.801 35.963-2.888 11.088-1.0014 25.556 4.3039 33.006 5.4588 7.6661 19.41 11.505 41.707 11.476 8.25-0.0108 17.25 0.40086 20 0.91476 7.7776 1.4534 30.272 8.9205 31.564 10.478 3.3114 3.99-4.0301 5.981-11.192 3.0354-1.8546-0.76276-6.7471-1.9322-10.872-2.5986-4.125-0.66649-14.302-2.4983-22.616-4.0708-11.537-2.182-18.002-2.8528-27.305-2.833-11.418 0.0244-12.586-0.15955-18.456-2.9064-16.277-7.6168-21.277-25.563-13.292-47.704 1.0842-3.0064 11.797-25.78 14.419-30.652 0.1929-0.35859-1.0037-1.9336-2.6592-3.5-5.071-4.7982-16.091-34.766-16.091-43.758 0-15.867 14.797-34.59 27.336-34.59 5.0248 0 8.0681 1.3478 17.345 7.6816 8.7771 5.9928 10.649 6.2335 12.392 1.594 0.5737-1.5266 2.9033-4.6806 5.1769-7.009 5.1609-5.2852 11.88-7.7392 20.868-7.6218 9.1349 0.11937 14.863 3.4098 25.374 14.576 4.5452 4.8284 8.7057 8.779 9.2454 8.779s3.8061-1.4569 7.2586-3.2375c4.9703-2.5634 7.7585-3.3084 13.39-3.5783 6.5943-0.316 7.4573-0.11098 11.832 2.8111 5.399 3.6063 10.671 10.338 14.294 18.253 2.614 5.7098 3.9029 11.648 4.9995 23.033 0.5923 6.1497 0.9087 6.8944 3.3986 8 4.1885 1.8598 18.668 18.163 21.805 24.551 2.4482 4.9853 2.7735 6.7518 2.7009 14.668-0.074 8.0903-0.4354 9.758-3.5742 16.5-6.4528 13.86-16.61 19.398-25.501 13.903-1.8663-1.1535-3.987-1.8694-4.7125-1.591-0.7256 0.27841-1.9039 2.6847-2.6184 5.3472-4.4196 16.467-11.734 29.145-20.41 35.376-5.6829 4.0812-5.7783 5.6237-0.9051 14.632 7.2063 13.322 10.083 19.974 13.768 31.833 4.3951 14.147 8.4447 22.261 16.22 32.5 3.1326 4.125 7.9168 11.775 10.632 17 5.8191 11.199 9.4435 16.699 15.477 23.483 7.1908 8.0854 10.081 12.929 13.733 23.018 4.3656 12.06 6.236 15.695 14.045 27.292 3.481 5.1697 9.2749 15.355 12.875 22.634 5.8024 11.731 7.4727 14.171 14.7 21.477 8.0049 8.0914 8.1191 8.2763 6.2541 10.132-1.6395 1.6317-3.6109 1.9127-14.4 2.0523-12.7 0.16433-14.98-0.21759-33.398-5.5941-4.8897-1.4274-8.735-1.6402-22.5-1.245-11.295 0.32426-20.279 0.0104-28.102-0.98163-9.4834-1.2026-13.832-1.2527-24.8-0.28594-10.198 0.89888-16.764 0.89655-28.148-0.01-12.986-1.0341-16.505-0.96289-28.061 0.56763-10.998 1.4566-14.577 1.5598-21.352 0.61534-15.824-2.2059-21.895-2.3284-32.639-0.65873-5.775 0.8975-18.6 1.9919-28.5 2.432-16.007 0.71163-19.439 1.1904-31 4.3245-7.15 1.9384-18.997 4.4611-26.327 5.6061-11.4 1.7807-15.208 2.8901-26.327 7.6703-7.1496 3.0737-15.777 6.2147-19.173 6.98-3.3953 0.7653-10.455 2.3219-15.688 3.459-6.6895 1.4536-13.222 3.8678-22 8.1303-9.9988 4.8552-14.278 6.3537-21.485 7.524-4.95 0.80374-9.6247 2.0834-10.388 2.8438-1.6284 1.6214-0.4499 3.9063 14.703 28.507 11.058 17.953 14.656 25.814 19.693 43.028 2.0116 6.875 6.0632 18.125 9.0036 25s7.2095 18.8 9.4869 26.5c2.5982 8.7843 6.8789 19.774 11.49 29.5 4.2498 8.9626 8.4465 19.594 9.9501 25.208 1.4303 5.3391 4.1576 13.346 6.0608 17.792 2.6448 6.1793 4.2933 12.846 6.9954 28.292 1.9443 11.114 5.3524 26.733 7.5735 34.708 3.8867 13.955 4.0726 15.308 4.9501 36 1.0096 23.808 1.2078 24.958 6.3418 36.789 3.7755 8.7006 6.9199 13.788 14.655 23.711 5.5916 7.1734 14.411 20.082 18.436 26.983 1.5985 2.7409 6.8446 10.166 11.658 16.5 5.2694 6.9342 11.423 16.689 15.466 24.517 3.6926 7.15 10.603 18.625 15.356 25.5 10.347 14.965 12.29 17.952 18.866 29 2.7828 4.675 7.996 12.945 11.585 18.378 3.5889 5.4329 9.7167 16.349 13.617 24.258 3.9007 7.909 11.11 20.662 16.021 28.34 4.9107 7.6782 11.022 18.137 13.58 23.242 2.5582 5.1049 7.0294 13.332 9.9359 18.282 2.9066 4.95 6.1544 11.25 7.2173 14 1.063 2.75 3.2693 7.25 4.9031 10 2.8161 4.7403 3.2269 5.026 7.9073 5.5 6.218 0.6297 6.3789 1.4215 2.9989 14.755-1.3978 5.5146-2.6222 12.663-2.7207 15.886-0.3888 12.717 2.1363 58.129 3.6065 64.859 0.841 3.85 2.6527 15.775 4.0261 26.5 1.3735 10.725 3.8537 24.662 5.5116 30.971 1.658 6.3092 3.0383 12.834 3.0674 14.5 0.096 5.4798 4.5675 28.74 8.6569 45.029 2.2093 8.8 4.7633 19.932 5.6755 24.738 0.9123 4.8062 3.2715 13.806 5.2427 20 1.9712 6.1938 5.2883 18.012 7.3712 26.262 2.083 8.25 6.3292 21.475 9.4361 29.388 3.1068 7.9137 6.9323 19.389 8.5011 25.5 3.5379 13.782 7.018 21.778 10.545 24.229 5.1255 3.5616 6.3227 5.1976 7.9828 10.908 1.5416 5.3029 2.7502 6.7997 16.35 20.25 16.626 16.443 22.268 21.291 32.502 27.928 10.39 6.7378 16.663 12.27 25.1 22.135 4.1245 4.8225 11.914 12.192 17.434 16.495 5.4882 4.278 10.23 8.4333 10.537 9.2339 0.9037 2.3551-1.3838 6.1225-4.7553 7.8317-3.3113 1.6786-29.769 3.7395-36.764 2.8638-2.0329-0.2546-3.9277 0.024-4.3038 0.6324-0.3695 0.598 2.4565 6.1535 6.2802 12.346 6.8791 11.14 8.2717 13.428 15.463 25.409 4.0547 6.7549 4.8118 12.306 2.189 16.05-2.6636 3.8028-7.6268 4.6464-23.457 3.987-24.72-1.0297-32.894-2.3284-49.447-7.8564-13.255-4.4266-15.954-5.0051-22.999-4.9297-4.3899 0.047-8.35 0.4538-8.8002 0.904s-0.3143 7.7282 0.3019 16.173c2.2821 31.273-2.3222 31.578-34.612 2.2943-4.4089-3.9985-12.3-10.533-17.535-14.522-12.222-9.312-20.608-18.405-30.203-32.752-4.23-6.325-12.248-16.426-17.818-22.447-5.5698-6.0207-11.269-12.444-12.665-14.274-2.9237-3.8331-17.098-15.137-22.264-17.756-1.925-0.9758-6.0066-3.3068-9.0703-5.18-7.559-4.6219-20.384-7.6906-28.59-6.8412-5.8198 0.6024-6.2034 0.5094-6.938-1.6823-1.3261-3.9566-0.3563-21.831 1.7535-32.32 1.2147-6.0389 2.35-17.328 2.8661-28.5 0.6166-13.348 1.4407-20.728 2.9593-26.5 1.3594-5.1671 2.4347-13.666 3.0366-24 0.5126-8.8 1.6118-18.475 2.4428-21.5s2.3976-8.7687 3.4812-12.764c1.0837-3.995 2.4663-12.995 3.0724-20 0.7039-8.1353 2.3-17.252 4.4184-25.236 4.554-17.165 4.3348-16.028 6.018-31.21 1.1666-10.522 2.3179-15.808 5.1047-23.438 3.854-10.552 6.2151-19.537 8.8736-33.771 1.0575-5.662 3.6406-13.513 7.0733-21.5 5.0928-11.849 6.2319-15.725 9.9919-33.997 0.8393-4.0787 3.4992-11.729 5.9109-17 5.4998-12.021 7.2617-17.933 9.1922-30.84 0.8437-5.6404 2.8735-14.19 4.5107-19 1.6373-4.8096 3.2475-11.552 3.5783-14.982 0.5434-5.6366 0.2957-6.8584-2.5718-12.683-2.119-4.3044-6.262-9.7067-12.472-16.262-5.1142-5.3994-11.577-13.192-14.362-17.317-7.0281-10.409-11.985-15.238-25.28-24.627-7.5671-5.3441-14.172-11.067-19.314-16.734-5.0444-5.5602-11.906-11.532-19.362-16.849-7.043-5.0234-13.726-10.783-17.13-14.763-10.598-12.391-16.728-18.229-26.346-25.091-5.3083-3.7873-11.808-9.4846-14.443-12.661-9.3732-11.296-15.052-16.574-26.405-24.539-8.074-5.6646-15.969-12.562-26.5-23.152l-15-15.084-31.187 0.30246c-33.661 0.32646-35.15 0.52119-51.367 6.7179-9.6518 3.6882-25.435 17.225-48.221 41.359-3.1757 3.3636-9.8086 9.5471-14.74 13.741-4.9311 4.194-12.424 11.958-16.651 17.252-4.227 5.2948-13.794 15.939-21.26 23.653-7.466 7.7142-15.375 16.629-17.575 19.811s-10.075 11.72-17.5 18.974c-10.441 10.2-14.357 14.775-17.282 20.189-3.4276 6.3435-11.255 17.02-17.229 23.5-1.2676 1.375-6.2273 9.25-11.022 17.5-9.9962 17.202-12.675 21.429-17.108 27-1.7505 2.2-5.4961 8.725-8.3234 14.5-4.7611 9.7249-5.0914 10.869-4.4737 15.5 0.3667 2.75 1.1777 6.1993 1.8022 7.6651 1.2023 2.8225 16.136 20.399 21.034 24.756 1.5941 1.4183 5.1941 4.8901 8 7.7153 3.4859 3.51 8.11 6.6126 14.602 9.7971 5.225 2.5632 12.732 7.0017 16.683 9.8633 19.054 13.802 44.669 34.066 52.788 41.761 4.9663 4.707 13.407 12.21 18.758 16.674 5.3505 4.4638 14.427 12.988 20.171 18.942 5.7434 5.9542 13.066 12.761 16.272 15.126 3.2062 2.3651 8.3044 6.1106 11.329 8.3234 3.025 2.2128 10.225 8.4166 16 13.786 5.775 5.3697 13.884 12.649 18.021 16.177 4.1365 3.5275 9.5365 8.661 12 11.408 2.4636 2.7468 4.9667 5.4468 5.5625 6s4.2643 5.2808 8.1524 10.506c3.888 5.225 11.886 14.45 17.773 20.5 5.8873 6.05 13.761 14.6 17.498 19 3.7364 4.4 10.75 11.6 15.587 16 4.8365 4.4 13.83 14.3 19.984 22 6.1549 7.7 13.534 16.25 16.398 19 5.7124 5.4855 13.959 16.025 19.035 24.329 3.1364 5.1303 3.2079 5.4794 1.9198 9.3823-1.8624 5.6431-3.3444 6.7891-8.78 6.7891-8.5269 0-17.997 5.5173-29.097 16.952-5.2544 5.4128-12.703 12.218-16.553 15.123-10.133 7.6454-12.716 10.221-22.172 22.117-5.5037 6.9235-11.247 12.817-16.298 16.724-9.565 7.3994-14.857 13.204-23.048 25.279-3.4718 5.1184-11.1 14.256-16.952 20.306-8.0921 8.366-12.289 13.754-17.528 22.5-4.579 7.645-9.6126 14.349-15.016 20-8.5385 8.9299-15.742 19.872-17.982 27.314-3.1418 10.439-9.9858 19.624-17.006 22.821-4.9296 2.2452-5.9402 2.2827-7.9286 0.2943zm10.105-18.179c0.9475-1.5125 5.6307-7.7 10.407-13.75 4.7764-6.05 10.14-13.475 11.92-16.5 6.509-11.065 14.297-21.123 25.163-32.5 3.152-3.3 9.4725-11.25 14.046-17.666 4.573-6.4162 13.084-16.766 18.912-23 5.8287-6.2337 14.216-15.852 18.639-21.375 4.4227-5.5224 12.698-14.104 18.389-19.071 5.6912-4.9667 13.677-13.048 17.746-17.959 4.0693-4.9108 9.4693-10.845 12-13.187 6.6313-6.137 19.713-15.528 26.101-18.736 11.756-5.9041 12.837-7.641 8.4447-13.562-1.4054-1.8944-5.116-8.3943-8.2458-14.444-4.8153-9.3081-6.8445-12.077-13.192-18-12.584-11.742-15.28-14.695-21.416-23.454-7.4392-10.62-12.223-15.814-20.521-22.279-10.721-8.353-12.92-10.735-20.55-22.267-8.3275-12.586-10.389-14.976-19.935-23.108-3.8032-3.2404-9.3967-9.2666-12.43-13.392-8.1485-11.081-17.544-19.777-28.09-26-7.2173-4.2586-11.154-7.5001-17.443-14.361-7.7946-8.5041-14.864-14.518-27.197-23.139-3.2868-2.2972-8.653-7.7006-12.606-12.693-8.7054-10.995-13.229-14.954-24.917-21.807-5.1594-3.025-11.186-7.3385-13.392-9.5855-2.2059-2.2471-7.2651-7.4905-11.243-11.652-7.8393-8.2019-15.325-12.79-17.68-10.836-1.032 0.8565-2.7494 0.6105-7.0979-1.0164-4.4241-1.6553-7.8695-4.1784-15.06-11.028-5.128-4.8852-10.019-8.8821-10.869-8.8821-1.862 0-20.143-14.526-23.9-18.991-1.4672-1.7436-4.5273-6.3965-6.8002-10.34-2.273-3.9432-5.4951-9.4195-7.1603-12.17-7.8904-13.031-8.0245-13.36-6.4179-15.774 0.8146-1.2241 4.2098-5.3023 7.5449-9.0627 4.427-4.9914 6.7865-8.7704 8.7411-14 4.5713-12.23 10.865-22.667 18.913-31.364 6.28-6.7861 8.5274-10.197 13.025-19.769 4.9994-10.64 6.2887-12.461 16.076-22.71 5.8527-6.1285 13.162-14.558 16.243-18.731 3.0811-4.1736 9.2173-10.963 13.636-15.088 14.548-13.582 21.138-20.629 26.793-28.654 5.4283-7.7028 8.1316-10.475 22.146-22.712 3.6947-3.226 10.321-10.533 14.725-16.238 7.4197-9.6114 12.533-14.637 18.928-18.603 6.9167-4.2893 22.946-21.774 22.946-25.03 0-0.4595-1.9567-1.6742-4.3483-2.6994-3.9364-1.6873-8.6517-6.1175-8.6517-8.1284 0-0.43654 0.7565-1.5502 1.6811-2.4748 1.3113-1.3113 2.686-1.5381 6.25-1.0311 6.9146 0.98362 13.04 0.61953 18.25-1.0848 3.769-1.2328 5.6929-1.324 9.7179-0.46079 5.8804 1.2611 16.114 0.18601 26.259-2.7588 14.944-4.3376 26.468-4.7581 41.842-1.527 3.575 0.75136 12.35 1.39 19.5 1.4193 17.562 0.0718 37.118 2.1706 39.149 4.2017 1.3594 1.3594 1.384 1.9377 0.1879 4.4219l-1.3761 2.858h-11.385c-7.8968 0-11.51 0.36406-11.793 1.1883-0.2246 0.65357 4.6824 4.9562 10.904 9.5614 6.9639 5.1543 14.773 12.149 20.313 18.196 4.95 5.4027 14.073 14.058 20.273 19.234 6.2 5.1759 15.65 13.927 21 19.447 5.3501 5.52 13.327 13.018 17.727 16.663 4.4 3.6444 14.3 12.756 22 20.247 7.7 7.4915 16.25 15.13 19 16.975 7.4332 4.9862 18.279 14.058 24.5 20.493 3.025 3.1291 8.875 8.2987 13 11.488s12.968 11.358 19.65 18.153c9.578 9.7389 12.383 13.225 13.251 16.465 0.6054 2.2608 2.6655 6.0858 4.5781 8.5 8.638 10.903 6.8729 30.753-5.1475 57.89-3.0455 6.875-6.4337 16.325-7.5295 21-2.8654 12.224-6.3536 22.98-11.4 35.15-2.429 5.8577-5.4845 14.858-6.7899 20-3.1461 12.393-5.76 20.659-9.5975 30.35-1.7424 4.4-4.9276 16.325-7.0782 26.5-2.1507 10.175-5.0443 22.55-6.4304 27.5-1.386 4.95-3.1979 15.06-4.0265 22.467-0.8285 7.4069-3.0497 20.007-4.936 28-1.8862 7.9931-3.9391 19.933-4.5618 26.533-0.6228 6.6-2.4484 18.505-4.057 26.456-1.7537 8.6682-2.9246 17.592-2.9246 22.289 0 10.317-1.5879 24.807-4.123 37.625-1.7626 8.9119-1.9498 12.333-1.3313 24.336l0.7196 13.967 4.6173 3.388c5.4494 3.9985 13.74 6.8932 24.117 8.4208 11.04 1.6251 13.575 3.2447 19.972 12.757 6.7173 9.9901 10.405 13.763 21.738 22.239 8.6957 6.5035 8.7384 6.5575 14.756 18.625 6.783 13.603 9.5106 17.11 20.532 26.397 4.2426 3.575 10.43 9.6812 13.75 13.569 7.5575 8.8514 13.936 14.496 20.684 18.304 7.8475 4.4289 16.96 8.0826 17.896 7.1752 0.4543-0.4407-0.5855-4.1183-2.3108-8.1726-3.1843-7.4831-4.8305-17.492-3.6504-22.194 0.8116-3.2337 5.3719-8.6822 7.2669-8.6822 0.7997 0 3.7972 1.7631 6.6611 3.918 8.1912 6.1633 15.131 8.3758 31.44 10.023 6.2459 0.6309 13.064 2.0631 17.5 3.6761 10.678 3.8826 24.642 7.3828 29.454 7.3828 5.0139 0 19.582-4.4134 21.266-6.4426 1.5967-1.924 0.374-4.0736-7.6848-13.511-4.0317-4.7214-8.0657-10.945-10.776-16.624-4.7276-9.908-8.5551-15.115-12.101-16.464-1.2575-0.4781-3.0974-2.1268-4.0887-3.6639-0.9913-1.537-3.0639-3.8674-4.6058-5.1785-1.9984-1.6993-2.7163-3.1352-2.5-5 0.2587-2.2296 0.8518-2.6616 4.0154-2.9242 2.6088-0.2165 4.5934 0.3436 6.6778 1.8847 1.7078 1.2626 3.6565 1.9278 4.594 1.568 0.8955-0.3436 3.2904 0.081 5.3222 0.9441 2.0318 0.8629 8.6441 2.391 14.694 3.3959 17.497 2.9062 20.176 3.1103 21.404 1.6306 1.5718-1.8939-6.5643-12.428-15.492-20.058-6.8312-5.8382-19.047-16.485-33.339-29.057-3.7515-3.3-10.59-8.2307-15.197-10.957-10.477-6.2004-16.769-12.015-23.038-21.293-4.0573-6.004-5.3666-7.2526-7.6188-7.2653-1.4957-0.01-3.3073-0.3881-4.0257-0.8438-0.7184-0.4556-2.4124-6.1862-3.7645-12.735-3.1006-15.016-4.5226-19.396-10.534-32.446-2.6704-5.7966-5.5598-13.897-6.4209-18-3.6989-17.626-4.9707-22.094-9.5254-33.461-4.655-11.617-5.4832-14.912-8.0425-32-0.6589-4.4-2.7435-12.275-4.6322-17.5-5.1187-14.16-6.1131-18.373-6.8232-28.908-0.6544-9.709-2.3377-17.667-6.9993-33.092-1.6365-5.4146-2.9354-13.037-3.5784-21-0.6736-8.3408-2.1861-16.992-4.5455-26-2.9497-11.261-3.6759-16.157-4.3792-29.524-0.5181-9.8477-1.6934-19.869-3.0493-26-2.258-10.21-2.4184-13.558-2.0292-42.356 0.2135-15.793 0.1356-16.51-2.1742-20-13.294-20.087-13.555-20.578-15.727-29.62-2.8553-11.886-7.4191-21.229-15.166-31.05-6.172-7.824-8.1381-11.504-14.808-27.716-1.7572-4.2711-6.507-12.441-10.555-18.156-4.0878-5.7706-10.447-16.768-14.302-24.734-5.3912-11.141-8.5397-16.226-14.098-22.772-9.6811-11.4-10.29-12.321-17.054-25.804-3.6428-7.2606-8.7807-15.407-13.413-21.268-4.152-5.2531-10.042-14.418-13.175-20.5-7.1776-13.934-9.3268-17.033-20.652-29.783-6.3791-7.1808-11.104-13.768-15.245-21.252-4.2581-7.6967-8.3952-13.418-14.25-19.708-4.5375-4.8743-8.2447-9.6264-8.2381-10.56 0.01-0.93373 0.6762-4.1727 1.4881-7.1977s1.4816-7.8911 1.4881-10.814c0.012-5.3488-3.9146-26.266-5.9133-31.501-0.5912-1.5483-1.0826-7.8483-1.0922-14-0.02-13.175-1.4905-20.91-6.3266-33.286-2.6213-6.7082-3.8245-11.763-4.6012-19.332-1.3893-13.539-3.0527-19.129-10.145-34.097-4.1441-8.7456-6.8602-16.291-8.9931-24.983-2.1023-8.5674-4.924-16.449-9.0427-25.257-3.8193-8.168-7.1947-17.407-9.3228-25.517-3.3579-12.797-7.1585-22.717-12.04-31.427-1.453-2.5926-4.5748-10.546-6.9373-17.674-5.27-15.901-7.1473-19.148-17.867-30.905-5.6036-6.1457-10.043-12.249-13.109-18.021-5.6525-10.644-12.231-19.195-17.871-23.23-7.7191-5.5228-7.8638-5.7117-7.1783-9.3658 0.3792-2.0215 0.195-3.6296-0.4623-4.0358-2.3131-1.4296-10.098 0.71018-14.314 3.9341-4.9442 3.781-12.66 6.472-28.677 10.001-6.2724 1.382-16.586 4.5856-22.918 7.1192-6.6293 2.6523-16.427 5.5983-23.096 6.9443-15.497 3.128-18.869 4.408-31.657 12.017-10.24 6.0927-20.717 10.287-29.948 11.989-2.1869 0.40315-10.501 3.1758-18.476 6.1613-7.975 2.9856-17.875 6.106-22 6.9342-16.08 3.2286-31.029 8.8333-30.977 11.614 0.013 0.67823 1.2505 3.4832 2.7505 6.2332 2.2448 4.1157 3.9986 5.7215 9.9168 9.0796 3.9544 2.2438 9.0583 5.7678 11.342 7.8311 3.9227 3.544 4.4161 3.7152 8.9212 3.0956l4.7689-0.65589 1.6543 4.1345c0.9099 2.274 3.6722 6.2918 6.1385 8.9285 4.7923 5.1233 5.2827 6.0866 3.0992 6.0866-1.2397 0-4.615 4.0341-4.615 5.5158 0 0.32239 1.5513 2.0257 3.4473 3.7852 3.9713 3.6853 17.216 28.722 20.472 38.699 1.1667 3.575 3.4038 8.3 4.9711 10.5 5.2267 7.3361 15.767 25.931 17.855 31.5 1.1344 3.025 2.8364 8.2 3.7821 11.5s3.8596 10.275 6.4753 15.5c6.0727 12.131 7.1206 15.318 10.972 33.372 2.0058 9.4031 4.5655 18.045 6.9604 23.5 4.6474 10.585 7.092 20.087 7.7316 30.051 0.2675 4.1669 1.3304 11.626 2.3621 16.576 2.3086 11.076 4.569 50.797 3.1093 54.637-0.5399 1.4198-2.9552 3.7382-5.3674 5.1518-5.9006 3.458-10.983 9.1612-19.511 21.893-3.9268 5.8628-9.3742 13.432-12.105 16.822-2.731 3.3891-6.2379 8.9374-7.7932 12.329-4.7489 10.357-12.792 25.674-18.651 35.517-3.0609 5.1422-6.9892 13.017-8.7296 17.5-4.7074 12.125-8.477 19.929-15.53 32.151-3.4915 6.05-8.2072 15.472-10.479 20.937-5.3271 12.815-8.335 18.705-16.116 31.563-3.495 5.775-8.1308 14.55-10.302 19.5-2.171 4.95-7.4645 14.945-11.763 22.21-4.9464 8.3601-9.6407 18.045-12.786 26.378-2.7333 7.2426-7.7001 18.173-11.037 24.29-3.3372 6.1169-7.9037 14.913-10.148 19.548-3.5937 7.4218-3.9233 8.6733-2.765 10.5 0.7233 1.1407 2.7491 4.999 4.5018 8.574 1.7528 3.575 6.1733 10.195 9.8236 14.711 3.6502 4.5158 10.517 14.191 15.26 21.5 4.7426 7.3092 11.15 16.439 14.239 20.289 3.0889 3.85 7.1651 9.025 9.0581 11.5 4.0199 5.2557 11.01 18.158 14.059 25.948 1.1725 2.9965 5.0637 9.8662 8.647 15.266 3.5833 5.3999 9.9108 16.448 14.061 24.552 4.1504 8.1037 10.328 18.559 13.728 23.234 7.9253 10.896 12.288 18.192 17.938 30 2.5002 5.225 7.0571 13.325 10.126 18 7.0004 10.663 11.088 18.654 16.369 32 2.2852 5.775 6.4155 14.325 9.1783 19 2.7629 4.675 6.8549 12.325 9.0933 17 17.204 35.931 20.49 43.492 25.083 57.707 4.5148 13.976 5.6011 16.334 9.4413 20.5 5.6889 6.171 5.8275 9.5395 0.6022 14.643-2.0555 2.0075-5.093 5.4949-6.75 7.7497-1.6571 2.2548-5.8421 6.7063-9.3001 9.8922-3.458 3.186-10.189 10.566-14.958 16.4-4.7686 5.8342-10.544 12.408-12.834 14.608s-7.9341 7.6335-12.542 12.074c-11.174 10.768-14.007 16.18-7.161 13.678 8.3109-3.0367 14.201-4.4979 15.744-3.9057 3.3009 1.2666 1.2619 8.2686-8.3244 28.587-9.9755 21.143-12.137 27.154-12.137 33.748 0 8.2231 4.7203 4.9428 17.522-12.177 8.7898-11.755 18.789-21.984 20.753-21.23 4.3519 1.6699 4.7559 4.1758 5.2723 32.698 0.4347 24.014 1.2808 34.321 3.0527 37.188 1.0319 1.6695 3.3907 0.7819 5.0775-1.9106zm-390.59-819.95c1.3788-1.5125 4.9241-5.9 7.8782-9.75 2.9542-3.85 10.834-12.4 17.511-19 6.9339-6.854 14.232-15.195 17.019-19.451 5.2095-7.9551 10.785-14.914 21.15-26.396 3.5512-3.9342 8.5426-10.528 11.092-14.653 7.6568-12.389 12.033-18.008 22.193-28.5 5.3263-5.5 11.183-12.25 13.016-15 6.0002-9.0046 13.645-18.859 20.945-27 3.9456-4.4 10.636-13.156 14.869-19.458 5.5001-8.1896 10.924-14.607 19.016-22.5 6.2266-6.0732 14.526-15.092 18.444-20.042 3.9176-4.95 12.125-14.175 18.238-20.5 6.1136-6.325 15.078-16.37 19.922-22.322 5.5397-6.8078 11.95-13.299 17.283-17.5 17.407-13.714 34.589-28.759 35.088-30.726 0.3196-1.2598-6.2201-7.4525-7.8702-7.4525-2.262 0-23.999 18.421-31.78 26.933-4.5949 5.0261-12.92 12.818-18.5 17.315-10.285 8.2892-33.865 30.84-54.061 51.701-6.0963 6.2969-18.284 18.676-27.084 27.508-33.789 33.914-53.389 54.309-58.775 61.158-3.0772 3.9132-10.163 12.013-15.746 18-5.5829 5.9868-12.22 14.035-14.75 17.885-10.632 16.183-29.223 38.37-34.431 41.09-3.8642 2.0183-7.7789 1.75-13.925-0.9543-2.9559-1.3006-8.7494-3.5254-12.874-4.944-16.683-5.7374-26.145-12.782-37.732-28.093-2.5381-3.3539-9.851-11.498-16.251-18.098-6.3999-6.6-14.454-15.825-17.898-20.5s-9.7368-12.1-13.984-16.5c-9.8274-10.181-14.642-16.128-20.643-25.5-8.4302-13.165-13.487-20.344-18.668-26.5-2.777-3.3-8.3645-11.042-12.417-17.204-4.0521-6.1621-8.2149-11.657-9.2507-12.212-2.4499-1.3111-3.5347-4.0981-7.2338-18.584-3.6246-14.194-4.8729-30.375-2.959-38.353 2.1852-9.109 10.734-20.783 20.633-28.177 7.1997-5.3778 8.7931-9.2253 8.1421-19.66-0.28618-4.5871-1.0333-8.9583-1.6603-9.7138-3.0232-3.6428-27.499-5.1643-35.632-2.215-7.433 2.6955-25.343 11.531-29.547 14.576-2.3106 1.6738-4.8182 3.0432-5.5724 3.0432-4.6018 0-3.1008 11.815 1.6715 13.157 1.375 0.38674 4.3888 1.2488 6.6974 1.9157 4.8874 1.4119 16.685 0.62567 24.023-1.6011 6.0219-1.8272 9.3792-1.8503 11.798-0.0813 1.6319 1.1933 1.7331 1.7602 0.7134 3.9982-1.7837 3.9149-10.285 9.087-30.395 18.493-14.199 6.6412-16.171 8.5739-16.171 15.856 0 5.5754 2.3957 8.0201 11.022 11.248 3.1828 1.1909 6.355 2.6366 7.0491 3.2127 3.0291 2.5139 0.0307 8.8026-4.1971 8.8026-3.1441 0-10.166-4.7798-17.756-12.086-9.7288-9.3652-10.158-13.992-1.9861-21.426 2.5858-2.3525 6.909-6.2793 9.6071-8.7264 5.0135-4.547 5.4255-6.7617 1.2579-6.7617-3.2629 0-6.6635 2.7756-6.6635 5.4388 0 1.5463-2.2614 4.557-6.75 8.9864-9.8526 9.7227-15.839 13.556-22.605 14.474-3.1041 0.42123-5.918 1.0401-6.2531 1.3752-0.33515 0.33515 1.2664 2.8339 3.5589 5.5527 3.3792 4.0075 4.3309 6.0536 5.0274 10.808 2.859 19.516 3.2014 20.708 6.9463 24.171 1.9663 1.8184 6.4936 4.7434 10.061 6.5 5.7555 2.8343 7.369 3.1777 14.333 3.0509 7.099-0.12925 8.1216-0.40515 10.716-2.8911 1.7825-1.7078 3.9278-2.7293 5.6665-2.6982 1.5389 0.0275 4.373 0.0815 6.298 0.11992 1.925 0.0385 4.611-0.0331 5.9688-0.15892 4.0149-0.37213 3.7669 2.9334-0.55183 7.3562l-3.7724 3.8633 1.1601 5.0258c0.63805 2.7642 5.0582 12.113 9.8227 20.776 4.7644 8.6625 10.139 18.45 11.943 21.75 1.8044 3.3 5.0017 8.3521 7.105 11.227 14.125 19.306 27.324 35.478 37.768 46.273 6.6507 6.875 15.819 17.528 20.374 23.674 5.8522 7.8955 11.412 13.91 18.95 20.5 5.8675 5.1294 15.183 13.826 20.7 19.327 5.5176 5.5003 14.764 13.445 20.547 17.655 5.7835 4.21 15.233 12.454 21 18.319 9.436 9.5982 15.529 14.355 18.548 14.481 0.5846 0.0243 2.1911-1.1933 3.5699-2.7058zm-261.1-224.77c2.9931-1.5478 5.9673-6.0559 5.9673-9.045 0-0.91371-1.575-5.8664-3.5-11.006s-3.5-11.13-3.5-13.312c0-4.7094-3.5379-9.5421-7.747-10.583-1.5141-0.37425-3.878-1.7217-5.253-2.9942-2.2577-2.0895-3.6884-2.3595-14.761-2.7861l-12.261-0.47234-6.3246 4.3668c-8.529 5.8888-9.6618 8.1159-6.932 13.628 2.6149 5.2797 11.499 15.744 17.347 20.431 4.7512 3.8087 11.52 7.1541 21.932 10.839 7.7702 2.7502 11.116 2.9578 15.033 0.93259zm279.69-42.402c6.896-3.4828 15.401-7.2604 24.28-10.785 3.575-1.419 11.675-5.4122 18-8.8739s14.425-7.4306 18-8.8199c3.575-1.3892 10.775-4.1718 16-6.1834s13.775-6.0091 19-8.8832c9.9179-5.4555 15.824-8.0228 32.5-14.128 5.5-2.0134 14.275-5.7782 19.5-8.3662 9.893-4.9001 15.091-6.8938 31-11.89 5.225-1.6409 14.283-5.2424 20.128-8.0035 13.982-6.6039 15.8-7.3428 30.026-12.201 6.6573-2.2736 15.759-5.7151 20.225-7.6478 9.7355-4.2127 17.885-6.7022 30.621-9.3538 12.819-2.6689 17.819-4.3893 29.037-9.9891 5.2452-2.6185 15.82-7.2414 23.5-10.273 7.6798-3.0318 16.985-6.8984 20.679-8.5924 8.2043-3.7625 19.744-7.1639 35.82-10.558 7.492-1.5819 16.239-4.3065 22.808-7.105 5.8609-2.4966 11.669-4.9545 12.906-5.4621 2.9877-1.2255 2.8449-3.3187-0.8622-12.64-3.9625-9.9638-8.23-15.56-18.594-24.385-4.5663-3.8882-11.386-10.753-15.156-15.255-9.3071-11.116-15.416-16.627-25.828-23.298-4.8458-3.1052-11.804-8.5127-15.463-12.017-3.659-3.504-7.368-6.3708-8.2423-6.3708-0.8742 0-2.8304-1.397-4.3472-3.1046-3.4533-3.8876-9.0975-6.7374-21.386-10.798-5.2958-1.7498-12.271-4.7829-15.5-6.74-7.7535-4.6992-8.9627-5.13-22.076-7.8654-9.0605-1.89-13.023-2.2287-20.706-1.7704-5.8848 0.35109-12.468 0.0692-17.295-0.74065-11.544-1.9365-23.105-1.4846-36.98 1.4455-6.7025 1.4154-14.802 2.5769-18 2.581-10.083 0.0132-22.037 1.8108-26.214 3.9419-2.2107 1.1278-5.0848 2.0506-6.3869 2.0506-1.302 0-5.0783 1.1016-8.3917 2.4479-3.3133 1.3463-9.1284 2.9435-12.922 3.5493-21.03 3.3578-25.43 5.2265-38.898 16.523-4.4 3.6903-13.006 10.038-19.124 14.106-13.107 8.7152-18.058 13.741-26.703 27.107-3.8012 5.8764-10.097 13.633-15.488 19.081-10.79 10.903-13.254 14.346-20.177 28.187-2.8887 5.775-7.1924 13.706-9.5638 17.624-7.59 12.541-9.061 17.815-10.427 37.376-0.48005 6.875-2.0143 17.267-3.4094 23.092-2.3222 9.6972-2.4853 11.81-1.9304 25 0.33341 7.9241 0.68854 23.633 0.78918 34.908 0.18825 21.089 1.178 27.755 4.9831 33.563 2.0463 3.123 3.245 3.0668 10.271-0.48173zm11.03-38.161c-2.5796-1.5025-2.2155-2.652 2.75-8.6836 4.2008-5.1027 4.5-5.8562 4.5-11.333 0-3.2266-0.5182-8.9124-1.1515-12.635-0.985-5.7894-0.8457-8.8661 0.9625-21.269 1.1628-7.975 2.629-19.675 3.2582-26 1.2536-12.601 2.736-17.952 8.7312-31.517 2.1918-4.9596 5.4067-13.96 7.1441-20 3.5889-12.477 5.6967-16.165 13.195-23.086 2.9181-2.6934 10.718-10.072 17.333-16.397 11.728-11.214 12.416-11.692 27.684-19.213 8.6111-4.242 17.674-8.9924 20.141-10.556 2.4663-1.564 7.5708-3.8317 11.344-5.0392 24.993-7.9994 37.652-12.28 43.077-14.568 3.4196-1.4419 9.2696-3.068 13-3.6135 3.7304-0.54546 8.9915-1.6709 11.691-2.501 7.0987-2.1825 33.253-2.1156 38.373 0.0981 8.4146 3.6379 12.67 4.2606 18.886 2.7639 7.8134-1.8815 11.589-1.0963 15.077 3.1353 1.6013 1.9426 4.7047 4.0936 7.1521 4.957 2.3778 0.83896 6.903 3.0924 10.056 5.0077 3.1528 1.9153 8.1658 3.9917 11.14 4.6142 8.0293 1.6807 14.897 5.7411 30.053 17.769 8.742 6.9374 15.75 11.67 19.5 13.17 3.2198 1.2878 9.8692 4.3378 14.776 6.7779 4.9073 2.44 11.207 5.2103 14 6.156 4.3695 1.4798 5.125 2.1245 5.4174 4.6228 0.2039 1.742 2.1294 4.8165 4.814 7.6865 3.4236 3.6601 4.4004 5.423 4.1602 7.5077l-0.314 2.7245-10.5 0.63658c-5.775 0.35012-14.55 1.61-19.5 2.7998-6.7403 1.6201-14.12 2.3642-29.394 2.9638l-20.394 0.80056-10.668 5.5527c-8.4542 4.4003-12.316 5.802-18.606 6.7542-9.2751 1.404-16.506 3.9948-28.938 10.369-7.3193 3.7527-10.587 4.8118-17.5 5.672-19.464 2.4219-24.393 4.1316-40.651 14.102-5.9481 3.6476-10.555 5.6181-16.221 6.9373-10.766 2.5068-17.597 5.698-28.795 13.451-11.204 7.7573-11.87 8.0404-23.702 10.065-12.487 2.1368-20.274 5.4503-32.715 13.922-5.8218 3.964-13.155 8.1688-16.296 9.3441-11.791 4.4116-16.678 7.5266-34.577 22.04-17.974 14.574-23.027 17.076-28.291 14.01zm36.953-32.111c3.2975-1.4039 7.2971-4.7557 7.2971-6.1151 0-0.5428-1.7667-0.72039-4.08-0.41012-2.4828 0.33302-5.4219-0.0135-7.5084-0.88527-8.0313-3.3557-13.955 3.0644-6.543 7.0915 3.2524 1.7672 7.1624 1.8823 10.834 0.31901zm10.283-12.795c1.0923-1.0923 2.281-3.8308 2.6415-6.0857 0.8071-5.0472 2.3324-5.7344 6.7152-3.0256 4.1519 2.566 5.9719 2.5916 11.329 0.15908 6.0234-2.7348 7.5823-5.6692 7.5028-14.122-0.047-5.0139 0.3199-7.192 1.2738-7.558 0.7371-0.28283 3.926 0.86566 7.0865 2.5522 3.8869 2.0742 7.1571 3.0664 10.106 3.0664 2.3975 0 4.3592 0.40598 4.3592 0.90217 0 1.3946-5.8246 3.0978-10.594 3.0978-3.1092 0-5.0696 0.66994-7.1007 2.4267-2.4633 2.1305-2.5939 2.5091-1.0697 3.1016 2.3272 0.90477 13.846-2.7691 21.264-6.7824 5.5858-3.0218 6.1512-3.6601 8.1906-9.2459 1.2048-3.3 2.2173-8.3625 2.25-11.25 0.069-6.125 0.9985-6.4915 8.285-3.2683 4.1003 1.8137 4.9248 1.8663 9.7294 0.61996 6.1623-1.5985 8.4791-3.6356 10.351-9.1016 0.8738-2.5514 2.3508-4.4805 4.0783-5.3268 2.3794-1.1657 3.192-1.0746 6.6927 0.75 8.243 4.2965 16.183 1.6151 20.923-7.0655 3.4657-6.3475 4.899-7.8577 7.4571-7.8577 1.2168 0 3.4152 1.35 4.8853 3 1.4702 1.65 3.5796 3 4.6877 3 3.1297 0 10.484-7.44 12.455-12.599 1.6736-4.3824 1.8973-4.5629 4.8846-3.9416 1.7218 0.35811 6.3967 0.90067 10.389 1.2057 9.06 0.69226 10.737-0.28205 14.676-8.5246 3.37-7.0531 4.9655-7.5985 10.308-3.5236 3.0007 2.2888 4.133 2.5584 9.036 2.1518 4.3824-0.36342 5.9454-0.9584 7.1637-2.727 4.9624-7.2035 9.099-8.8641 12.558-5.0415 4.5673 5.0468 15.451-0.2696 19.478-9.5142 0.9617-2.2078 2.5351-4.667 3.4965-5.4649 1.5798-1.3111 2.0982-1.0435 5.3866 2.7796 6.0866 7.0763 10.139 5.18 10.139-4.7447 0-3.838 0.4876-5.493 2-6.788 2.6693-2.2856 2.5346-2.9402-0.9796-4.7574-1.6387-0.84744-5.8586-4.234-9.3774-7.5257s-7.0356-5.9849-7.8149-5.9849c-0.7794 0-3.1029 2.2106-5.1634 4.9124-3.7796 4.9562-8.6316 9.1689-11.987 10.408-2.4649 0.90998-5.4869-0.79276-9.6776-5.4528-2.0116-2.2369-3.9457-3.5678-4.548-3.1296-0.5764 0.41933-2.2657 2.8705-3.7539 5.4471-5.4408 9.4197-11.535 11.113-19.13 5.3154-2.5218-1.925-5.0222-3.5-5.5562-3.5-0.5341 0-1.839 1.6875-2.8998 3.75-2.5922 5.04-7.0617 9.1244-11.749 10.737-3.2485 1.1176-4.3964 1.1061-7.2189-0.0724-4.0065-1.6728-4.7046-1.3606-5.4655 2.444-1.1507 5.7532-5.7771 7.673-11.478 4.763-1.4851-0.75811-5.1201-1.8906-8.0776-2.5168-6.6756-1.4132-8.1227-0.46582-8.1227 5.3176 0 7.192-2.4368 8.0433-11.522 4.0253-6.1603-2.7244-10.249-2.8819-11.622-0.44773-0.4654 0.825-1.8 4.1392-2.9657 7.3648-3.8345 10.611-5.9577 11.296-15.493 5.0033-2.8069-1.8525-5.7379-3.3681-6.5133-3.3681s-3.6062 4.1625-6.2908 9.25c-5.0827 9.6321-9.0104 14.75-11.32 14.75-0.7444 0-2.7242-1.0125-4.3996-2.25l-3.0461-2.25-1.9134 2.3608c-1.0523 1.2984-1.9133 2.9184-1.9133 3.6 0 2.2804-5.7662 9.2316-9.6544 11.638-2.8225 1.7472-5.3088 2.3832-9.3456 2.3907l-5.5 0.0101-0.5086 5.7086c-0.2797 3.1397-1.0934 6.2897-1.8083 7-0.9169 0.91101-4.8274 1.2914-13.275 1.2914-9.1248 0-12.179 0.32978-12.834 1.3857-0.4729 0.76212-0.626 3.9629-0.3404 7.1128 0.365 4.025 0.142 5.9603-0.7502 6.5117-0.6982 0.43151-4.3518 0.69456-8.1192 0.58456-6.1196-0.17869-7.1172 0.0673-9.357 2.3071-1.9123 1.9123-2.5072 3.5454-2.5072 6.8829 0 3.6542 0.6184 5.0581 3.75 8.5134 6.0832 6.712 13.496 8.9553 17.236 5.2158zm9.4323-2.6211c2.1882-0.83968 1.9862-2.393-0.3112-2.393-1.0412 0-2.152 0.675-2.4686 1.5-0.6146 1.6015 0.228 1.8722 2.7798 0.89301zm-35.434-4.143c-0.01-0.4125-0.434-1.412-0.9456-2.221-1.1522-1.8218-2.5038-0.68243-1.694 1.4279 0.5981 1.5586 2.6679 2.1805 2.6396 0.79313zm112.52-30.095c2.2006-1.5194 8.7256-5.0469 14.5-7.839 15.612-7.549 15.909-7.9363 6.1209-7.9993l-8.0946-0.0521-4.6152 5.618c-2.5383 3.0899-5.8655 6.4155-7.3938 7.3902-2.6471 1.6884-2.9227 1.6896-5.8196 0.0271-2.887-1.6569-3.2246-1.6576-6.6751-0.0121-3.5815 1.7079-7.2867 7.6694-6.0302 9.7024 0.7637 1.2357 13.1-3.4467 18.008-6.8351zm-94.211 5.4126c0.7881-0.78809 1.7147-3.1506 2.0592-5.25 0.8719-5.315 3.9208-9.867 7.4277-11.089 2.4584-0.85699 3.9245-0.59966 8.5776 1.5056 6.8549 3.1014 7.9905 2.4765 10.201-5.614 3.5357-12.941 5.606-14.603 14.049-11.275 6.5189 2.5695 7.824 1.7378 10.396-6.6252 3.1873-10.363 5.1713-13.764 7.8581-13.469 1.2514 0.13753 3.7502 1.375 5.5529 2.75 6.2757 4.7867 10.765 2.1448 12.565-7.3948 0.5818-3.0829 1.3876-7.4053 1.7909-9.6053 0.6759-3.6875 1.0079-4.0232 4.249-4.2964 2.8403-0.23946 4.3409 0.40986 7.8104 3.3796 3.1091 2.6613 5.5137 3.8134 8.7105 4.1738 5.0145 0.5652 5.5936-0.19105 6.886-8.9916 0.7287-4.9627 3.2371-7.7654 6.9499-7.7654 1.0602 0 4.3493 1.2262 7.3091 2.7249 6.8213 3.454 8.3539 2.6493 10.122-5.3143 1.3461-6.0623 3.4547-9.4106 5.9264-9.4106 0.7811 0 4.4694 1.8116 8.1963 4.0257 4.1574 2.4698 7.4147 3.7806 8.4284 3.3916 0.9583-0.36771 2.2898-3.0036 3.1701-6.2757 2.542-9.4478 2.9311-10.464 4.1649-10.873 0.6544-0.21725 3.913 2.1085 7.2413 5.1683s6.4356 5.5633 6.9051 5.5633c1.7146 0 3.9829-3.649 6.216-10 3.8346-10.906 4.3185-11.046 14.378-4.1636 3.8881 2.66 7.8438 5.1159 8.7904 5.4575 2.7172 0.98065 4.4688-1.6691 7.3109-11.06 1.454-4.8039 3.0087-9.1165 3.4551-9.5836 1.5938-1.6679 5.048 0.55317 7.5803 4.8742 3.3042 5.6382 8.8224 10.475 11.951 10.475 1.9313 0 2.9798-1.0488 4.9652-4.9668 3.0525-6.024 3.1729-8.6117 0.468-10.059-1.1269-0.60308-8.1552-2.4075-15.618-4.0098-10.415-2.236-15.236-3.8279-20.738-6.8476-8.6277-4.7352-9.9902-4.3448-11.581 3.318-1.6355 7.8783-3.1972 8.7082-7.5153 3.9939-1.9241-2.1006-3.4983-4.1427-3.4983-4.5381 0-0.39535-2.3625-2.1996-5.25-4.0094-4.5399-2.8455-6.1517-3.2967-11.917-3.3358-5.7546-0.039-7.0388 0.29683-9.3859 2.4548-3.3555 3.0851-6.0085 8.9653-6.9066 15.308-0.3744 2.6445-1.2863 5.0406-2.0264 5.3246-0.7401 0.28401-3.6666-1.0802-6.5033-3.0315-16.913-11.634-34.862-4.6393-36.918 14.387-0.7542 6.9779-1.9081 7.2436-11.222 2.5842-11.172-5.5889-19.712-4.8018-24.05 2.2164-1.1711 1.8948-3.845 5.4275-5.942 7.8504-2.0969 2.4229-4.3195 6.3078-4.939 8.6331-1.5984 5.9999-2.2649 7.0513-5.4623 8.6185-2.4637 1.2075-3.7864 1.1668-10.048-0.30936-7.4711-1.7613-8.1792-1.662-15.681 2.1994-0.4125 0.21234-0.75-0.552-0.75-1.6985 0-1.5868 1.5727-2.8277 6.5861-5.1964 6.5386-3.0893 6.6135-3.0994 10.378-1.4019 2.0855 0.94043 4.5861 1.5538 5.5568 1.363 1.9574-0.38467 2.3008-0.91473 5.792-8.9403 2.8108-6.4615 9.9618-13.818 16.668-17.146 4.755-2.3602 13.108-2.9259 21.693-1.4691 3.59 0.60919 4.5938 0.35484 7.1765-1.8184 1.6515-1.3897 3.2842-3.808 3.6282-5.374 0.7611-3.4653 3.2768-5.8163 10.643-9.9466 4.8263-2.706 6.6189-3.152 12.669-3.152 4.875 0 7.9939 0.53943 10.118 1.75 2.9555 1.684 3.2129 1.6746 6.8253-0.25 4.4112-2.3502 10.222-12.274 8.0096-13.679-1.5757-1.0006-0.1758-1.064-15.131 0.68536-13.536 1.5834-14.789 2.0261-30.882 10.911-5.2261 2.8852-8.8722 4.0532-16 5.1256-15.659 2.3559-24.065 6.1136-35.732 15.973-2.475 2.0917-8.2592 5.5492-12.854 7.6834-10.467 4.8622-21.964 12.562-25.308 16.949-1.4051 1.8437-3.7974 5.8272-5.3161 8.8522s-4.3368 8.0717-6.2623 11.215c-1.9256 3.1432-3.2533 6.3604-2.9506 7.1493 0.3028 0.78895 2.2062 1.9809 4.2298 2.6487 3.2462 1.0713 3.9902 0.98221 6.32-0.75712 1.5933-1.1894 2.8673-3.317 3.2119-5.3636 0.7863-4.6691 3.5249-9.6057 6.0908-10.979 1.8979-1.0158 2.0519-0.93389 1.3546 0.72036-2.5939 6.1536-3.4336 9.3413-3.4727 13.182-0.086 8.4417-4.205 11.555-13.942 10.537-9.4417-0.98685-13.394 2.5599-15.175 13.618-0.5501 3.4161-1.6795 7.2478-2.5097 8.5149-1.0801 1.6485-1.4253 4.362-1.2135 9.5402l0.2959 7.2364 5.5 1.7664c6.9968 2.2471 6.6069 2.2218 8.29 0.53866zm139.13-27.742c5.1979-2.5253 5.0581-3.8247-0.4115-3.8247-3.9632 0-7.0124 1.9878-7.0124 4.5714 0 2.0044 2.2211 1.781 7.4239-0.74673zm31.237-10.987c8.0105-2.9661 9.24-4.1848 6.8672-6.8068-2.9702-3.282-6.3499-2.5608-10.937 2.3339-2.2501 2.4008-4.991 4.8621-6.091 5.4696-3.7857 2.0908 3.8438 1.3425 10.161-0.99663zm34.089-12.861c2.3375-1.0256 4.2465-2.2276 4.2423-2.671-0.012-1.2247-7.9098-5.4753-8.9635-4.824-1.0416 0.64372-7.0288 9.3145-7.0288 10.179 0 0.94553 7.2543-0.71168 11.75-2.6842zm22.712-6.0491c3.0456-1.1395 5.5375-2.4737 5.5375-2.9648 0-2.6776-9.8133-4.0982-11.797-1.7077-0.5731 0.69058-1.352 2.4906-1.7308 4-0.8589 3.422 0.3663 3.5251 7.9905 0.67256zm43.615-12.745c5.7323-2.1118 14.247-4.9029 18.922-6.2024 10.645-2.959 11.634-3.6228 9.2776-6.2268-2.4157-2.6693-7.0496-4.9577-9.0947-4.4912-0.9256 0.2111-2.9808-0.25451-4.5671-1.0347-2.5989-1.2782-3.1428-1.228-5.5 0.50795-1.4853 1.0939-3.3306 4.0522-4.2699 6.8451-0.9284 2.7609-2.8022 5.779-4.2713 6.8798-2.3549 1.7646-2.9409 1.8243-5.8459 0.59595-5.246-2.2182-8.4779-1.6925-12.286 1.9984-1.8935 1.8352-3.4427 3.9855-3.4427 4.7783 0 2.323 9.1782 0.73339 21.078-3.6504zm-81.578-64.697c0-1.7381-0.781-2.0235-6.25-2.284-6.0858-0.28989-7.5528 0.47164-4.996 2.5936 1.2178 1.0107 6.7082 2.019 9.746 1.7899 0.825-0.0622 1.5-1.007 1.5-2.0994zm-513.49 234.61c5.7805-1.0302 12.289-2.6163 14.463-3.5248 7.5154-3.1402 10.147-7.5756 4.4945-7.5756-4.0935 0-8.5838-1.9927-16.149-7.1665-3.485-2.3834-10.895-6.7278-16.467-9.654-6.9825-3.6671-11.132-6.5666-13.353-9.3304-2.7672-3.4434-3.5952-3.9096-5.8607-3.2998-1.4511 0.39054-6.6883 1.4975-11.638 2.46-13.281 2.5822-22.5 6.4359-22.5 9.4049 0 2.7861 10.342 17.781 13.822 20.041 5.0512 3.2798 22.503 8.5297 28.638 8.6153 2.7719 0.0386 5.9398 0.45702 7.0398 0.92971 3.0268 1.3007 6.0292 1.1464 17.51-0.8996zm251.95-27.35c-0.0216-9.394-0.58415-17.746-1.4649-21.75-1.4473-6.5799-1.9489-19.725-0.90159-23.628 0.3141-1.1705 1.6137-2.6032 2.888-3.1838 2.1158-0.96404 2.3766-1.9078 3.0042-10.872 0.37796-5.3989 1.1251-12.741 1.6602-16.316 0.53515-3.575 1.3579-10.226 1.8284-14.779 0.78226-7.5715 1.3141-9.0247 6.2209-17 2.951-4.7964 6.091-10.521 6.9778-12.721 0.88676-2.2 2.7349-6.7 4.107-10s3.0516-7.7552 3.7321-9.9004c0.763-2.4051 4.3513-7.3221 9.3602-12.826 10.101-11.099 13.037-14.693 12.468-15.261-0.2443-0.2443-4.6191 2.4354-9.7217 5.9549-5.8697 4.0486-12.463 7.5601-17.951 9.56-7.7032 2.8073-9.5635 3.1116-16.632 2.7201-9.3704-0.51894-14.734 0.48704-19.541 3.6648-2.9087 1.923-3.9875 3.7309-6.3853 10.701-1.5869 4.6128-4.2869 10.626-6 13.363-2.6413 4.2201-3.1413 6.044-3.2901 12-0.24686 9.8853 1.4345 25.157 3.1309 28.437 0.78659 1.5211 1.9641 5.8752 2.6166 9.6758 0.65256 3.8006 2.5432 10.96 4.2015 15.91 1.9129 5.7102 3.4646 13.204 4.2448 20.5 0.67639 6.325 1.98 13.473 2.8969 15.884 1.1518 3.0288 1.4653 5.7295 1.0142 8.7372-0.84708 5.6487-0.14038 8.2095 3.5455 12.848 1.6612 2.0903 3.5169 5.6525 4.1239 7.9159 1.301 4.8513 1.7037 5.6154 2.96 5.6154 0.54837 0 0.92632-6.3628 0.90585-15.25zm-222.5 5.265c4.3551-1.6558 4.3047-3.9-0.17107-7.6178-2.2134-1.8385-4.5694-4.6588-5.2357-6.2673-1.235-2.9817-0.75724-4.5426 3.2089-10.483 1.0378-1.5544 0.93181-2.0381-0.65721-3-6.8396-4.1403-10.365-7.9732-16.232-17.647-3.5022-5.775-6.3691-10.993-6.3708-11.595-0.002-0.60226-0.90476-1.911-2.0068-2.9083-1.783-1.6136-2.5816-1.6842-7.25-0.64099-3.6029 0.80508-6.9692 0.88084-10.746 0.24183-13.026-2.2038-14.898-2.1991-17.14 0.0429-1.8558 1.8558-2.0518 2.9637-1.6452 9.2993 0.68214 10.629 3.2316 14.841 18.286 30.21 10.458 10.677 14.171 13.804 18.988 15.993 9.5116 4.3223 21.845 6.3213 26.973 4.3717zm13.97-38.938c3.3384-2.1578 8.7085-4.6796 11.934-5.6041l5.864-1.6808-0.57812-3.5625c-1.1138-6.8633-5.6665-14.05-15.354-24.239-12.464-13.108-18.262-16.107-26.795-13.858-5.5605 1.4653-7.5044 3.4862-7.477 7.773 0.0424 6.631 3.7483 28.752 5.3289 31.809 1.8073 3.4949 16.316 13.064 20.078 13.242 0.51166 0.0243 3.6617-1.7213 7-3.879zm668.59-108.15c1.3808-1.9391 2.5974-5.8505 3.2683-10.507 0.9528-6.6142 0.7697-9.0702-1.6897-22.661-3.3459-18.49-5.8071-27.126-10.241-35.935-1.8526-3.6808-5.6008-12.288-8.3294-19.127-2.7285-6.8393-7.1804-17.103-9.893-22.808-2.7125-5.7049-6.171-14.198-7.6854-18.873-3.3417-10.316-8.9894-22.42-14.232-30.5-2.1409-3.3-5.6283-9.3043-7.7499-13.343-2.7091-5.157-5.2688-8.4317-8.5983-11-2.6074-2.0114-7.4154-5.907-10.684-8.657-3.269-2.75-7.2454-5.7707-8.8364-6.7126-1.5911-0.94194-3.7954-2.3864-4.8987-3.2099-3.365-2.5118-4.6071-0.59657-4.8797 7.5239-0.293 8.7262-1.1618 10.63-11.133 24.399-3.9831 5.5-8.6935 12.925-10.468 16.5-4.6479 9.3663-7.0779 11.528-16.423 14.61-10.062 3.3184-16.304 6.3928-24.384 12.009-10.054 6.9883-11.233 7.3823-25.034 8.3687-7.0307 0.50248-14.108 1.4322-15.728 2.066l-2.945 1.1524 2.5 1.0571c1.4505 0.61333 12.228 1.1607 25.673 1.3038 30.547 0.3252 27.188-0.67148 62.827 18.641 6.6 3.5765 13.8 6.8264 16 7.2219 6.0114 1.0808 11.867 4.9502 15.822 10.455 2.1843 3.0405 6.2715 6.6956 10.665 9.5379 4.1175 2.6636 7.8388 5.9376 8.8182 7.7582 0.9319 1.7324 4.1994 5.7228 7.261 8.8674 3.0617 3.1446 7.4246 8.8076 9.6953 12.584 5.223 8.687 9.1283 12.771 15.113 15.803 7.7178 3.9109 16.166 13.152 19.942 21.814 1.1389 2.6125 2.5154 4.75 3.0589 4.75s1.9779-1.3901 3.1877-3.089zm-474.34-18.39c3.7485-0.8146 8.6154-2.1448 10.815-2.9561 2.2-0.81126 5.8454-1.4948 8.1008-1.5189 5.6163-0.0601 10.014-1.6998 15.809-5.8947 3.7045-2.6816 6.3277-3.7211 10.687-4.2351 4.4875-0.52911 7.5065-1.7678 13.522-5.5476 10.032-6.304 13.416-9.7494 18.979-19.325 2.5128-4.3246 7.8572-11.769 11.877-16.544 12.441-14.778 16.297-24.605 15.092-38.455-0.4825-5.544-0.2603-8.6639 0.8387-11.775 1.3275-3.7585 1.3269-4.8796-0.01-10-1.6962-6.519-2.5766-8.0417-10.163-17.578-11.374-14.298-17.067-19.552-25.647-23.672-12.794-6.1439-20.954-8.4443-30.089-8.4831-8.0635-0.0343-10.952 0.40708-31 4.7364-17.289 3.7336-19.751 6.178-8.5113 8.4528 8.7623 1.7735 27.847 8.0292 31.665 10.379 1.7344 1.0677 4.7641 3.7241 6.7328 5.9031 3.878 4.2925 12.458 20.584 15.109 28.689 2.2264 6.807 1.1292 9.131-10.415 22.06-7.1785 8.0397-10.498 10.934-15.368 13.399-7.7856 3.9432-40.146 14.846-44.06 14.846-3.5942 0-27.51-7.3383-33.626-10.318-6.265-3.052-8.6085-7.0034-9.4186-15.881-1.5549-17.039-1.8553-18.801-3.2058-18.801-1.4441 0-4.0771 4.4735-5.5572 9.4416-1.422 4.7733-3.825 36.812-3.2056 42.74 1.0983 10.509 14.888 33.845 23.253 39.349 1.9872 1.3076 8.3382 4.2661 14.113 6.5743 9.1566 3.6598 14.31 4.837 25.185 5.7535 0.92655 0.0781 4.7516-0.52452 8.5-1.3391zm110.32-53.138c10.497-8.3965 24.574-15.991 42.5-22.928 6.05-2.3413 13.25-5.1846 16-6.3185 2.75-1.1338 9.5-3.6887 15-5.6774s10.801-4.3368 11.779-5.2178c1.5188-1.3673 2.4707-1.4311 6.5-0.4357 4.6536 1.1496 17.278 0.99208 30.046-0.37501 9.1051-0.97492 6.3608-2.7987-5.1971-3.4539-7.781-0.44109-10.325-1.0425-15.791-3.7336-7.1984-3.5438-10.288-6.6257-26.837-26.774-14.859-18.09-14.483-17.739-18.139-16.936-3.151 0.69207-16.359 7.331-20.861 10.486-1.375 0.96348-4.975 3.1985-8 4.9667s-6.85 4.5204-8.5 6.116-4.6875 4.4311-6.75 6.3011c-3.738 3.3891-4.9996 7.8497-2.8708 10.15 0.4836 0.5225 1.412 2.6181 2.0633 4.6569 1.0423 3.2628 0.8238 4.9639-1.8243 14.201-1.6547 5.772-5.0289 14.454-7.4984 19.293-6.1832 12.117-8.9228 19.301-7.3552 19.289 0.6795-0.005 3.2604-1.6296 5.7354-3.6094zm-108.01-14.63c1.9181-0.58596 7.7681-3.6106 13-6.7215s11.572-6.6429 14.088-7.8488c6.2224-2.9819 12.895-8.8687 14.555-12.84 1.7427-4.1708 1.6971-16.679-0.0789-21.659-1.7466-4.8971-3.079-6.3497-14.551-15.863-13.214-10.958-15.267-11.821-28.122-11.821-12.505 0-19.527 2.0124-30.714 8.8018-8.281 5.0257-11.376 8.7495-17.62 21.198-5.8722 11.709-7.9026 18.263-7.0659 22.81 1.9974 10.854 9.5607 20.272 18.328 22.822 10.435 3.0349 30.034 3.6109 38.181 1.1222zm-28.707-13.666c-4.0968-2.5724-8.9913-9.3012-10.299-14.159-1.2094-4.4913 0.11305-8.1947 3.4729-9.7256 1.4358-0.65421 3.0303-3.149 4.4659-6.9879 2.3881-6.3858 6.7659-11.408 11.5-13.194 3.7489-1.4138 22.248-5.0146 25.783-5.0185 4.0684-0.005 7.5413 1.9464 8.681 4.8767 1.8782 4.8292 3.1479 17.412 2.1738 21.543-1.8805 7.9748-6.8332 12.01-23.528 19.169-13.089 5.6125-17.72 6.3404-22.249 3.4967zm278.22-29.978 17-0.85956 11.5-4.7216c6.325-2.5969 16.643-6.7077 22.929-9.1352 18.442-7.1219 22.747-10.338 33.779-25.231 2.9891-4.0353 8.6269-10.78 12.528-14.987 11.389-12.283 15.738-24.095 15.756-42.789 0.016-17.318-4.0642-27.709-15.243-38.817-6.1357-6.097-10.015-8.7231-25.249-17.094-23.631-12.984-28.338-14.709-40.5-14.836-5.225-0.0549-11.975 0.51326-15 1.2626-13.178 3.2643-11.256 5.0614 5.4343 5.0828 15.114 0.0194 17.725 1.1721 28.331 12.507 14.386 15.376 15.335 19.643 8.6931 39.082-7.248 21.213-8.9723 23.806-18.488 27.803-2.4583 1.0325-11.206 5.0787-19.44 8.9917-17.81 8.4643-21.569 8.9849-41.481 5.7461-15.251-2.4806-16.888-3.5135-19.373-12.222-1.0033-3.5162-3.3658-11.414-5.25-17.551-4.6356-15.097-4.5145-18.521 1.0741-30.343 4.5324-9.5876 5.2537-12 3.588-12-0.5016 0-6.5456 5.5125-13.431 12.25-10.807 10.575-13.014 13.292-16.137 19.87-4.3944 9.2544-6.3872 19.593-4.6844 24.302 0.6405 1.7712 1.1645 8.4044 1.1645 14.74 0 13.695 1.1002 17.922 7.5106 28.856 2.5918 4.4209 5.9838 11.446 7.5377 15.611 3.4574 9.2676 4.3427 10.277 13.002 14.827 3.7876 1.9903 8.1383 4.6614 9.6682 5.9357 5.2982 4.4129 8.5165 5.648 13.282 5.0973 2.475-0.28603 12.15-0.90686 21.5-1.3796zm-3.5-73.644c3.575-0.80488 10.04-2.1664 14.367-3.0256 10.549-2.0948 16.607-4.6078 24.243-10.057 12.027-8.5824 18.885-18.397 20.338-29.106 0.9641-7.1045-0.3-19.123-2.4484-23.277-2.8733-5.5564-24.518-18.104-31.323-18.158-5.4042-0.043-24.726 4.0194-31.874 6.7017-11.984 4.4968-22.911 13.275-26.704 21.455-1.7919 3.8634-2.0783 6.339-2.0245 17.5 0.1018 21.109 4.058 29.901 16.308 36.243 6.9909 3.6189 9.6381 3.8576 19.117 1.7234zm1.3264-15.45c-5.0232-1.0663-9.2501-3.1539-11.468-5.6639-2.3677-2.6799-8.8587-15.977-8.8587-18.147 0-3.2669 9.2809-13.899 17.104-19.594 8.9776-6.5356 14.072-8.0646 20.461-6.1416 6.6324 1.996 16.823 8.0696 20.427 12.175 2.8892 3.2906 3.1825 4.1812 2.7749 8.4238-0.591 6.1505-8.0458 21.84-12.367 26.029-3.261 3.1607-3.546 3.2343-13.615 3.5168-5.6566 0.15871-12.163-0.11011-14.458-0.59736zm633.59-46.195c3.106-3.1769 6.0779-9.7872 8.2139-18.27 1.7662-7.0143-1.5598-16.702-8.2461-24.018-5.277-5.7738-10.161-9.0661-11.877-8.0057-0.5338 0.32994-0.9866 1.8108-1.0062 3.2909-0.056 4.195-2.6431 14.052-4.3878 16.714-1.9551 2.9838-2.0339 8.6916-0.1698 12.296 0.7738 1.4963 1.8957 5.3649 2.4932 8.597 2.1763 11.773 8.672 15.847 14.98 9.3947zm-31.09-30.743c7.0581-3.6747 12.034-14.943 12.936-29.292 0.5826-9.2683-0.4669-15.09-4.0159-22.276-2.3593-4.7773-11.03-15.91-14.025-18.008-4.4175-3.0942-15.56-0.72817-19.977 4.242-1.6504 1.8571-1.6728 2.3222-0.2836 5.8912 4.7522 12.209 5.7728 18.521 6.0436 37.375 0.1461 10.175 0.5768 19.23 0.9571 20.123 1.737 4.0778 12.15 5.1807 18.365 1.9451zm-37.719-8.8183c3.9008-1.9758 6.0543-3.8761 7.6493-6.75 3.5774-6.4459 3.7662-10.966 0.9443-22.606-1.3858-5.7165-3.2161-13.459-4.0674-17.205-0.8513-3.7461-2.4588-8.0906-3.5723-9.6544s-2.0246-3.8223-2.0246-5.0189c0-5.3547-19.75-20.016-26.963-20.016-8.7535 0-15.838 5.544-19.822 15.512l-2.8029 7.0121 5.4761 15.295 5.476 15.295 3.818-0.64504 3.818-0.64504v4.3937c0 2.4166 0.9113 7.0923 2.0252 10.391 5.1201 15.161 17.3 21.097 30.046 14.641zm-83.382-15.417c6.7145-5.8162 15.795-9.8474 24.03-10.667l6.7813-0.67533-0.2701-6.9951c-0.4651-12.042-2.9007-21.099-6.6939-24.892-1.8191-1.8192-3.5942-4.2109-3.9446-5.3148-0.8092-2.5494-18.666-10.288-23.74-10.288-3.2239 0-10.384 7.5777-13.466 14.253-2.651 5.74-2.8788 7.141-2.8044 17.247 0.065 8.8367 0.504 12.031 2.232 16.241 4.014 9.7809 8.1039 14.802 12.376 15.195 0.379 0.0349 2.854-1.8118 5.5-4.1038z"/>
  <path id="path3045" fill="#dee80e" d="m627.21 436.31c-3.3651-7.7457-3.9886-13.104-3.3919-29.149 0.39943-10.74 0.15531-18.708-0.77784-25.389-1.6363-11.715-0.65353-27.363 2.4313-38.712 1.1995-4.4129 2.4333-13.468 2.9974-22 1.1092-16.775 2.803-22.701 9.6131-33.627 2.4926-3.9992 6.6111-11.682 9.1522-17.072 6.374-13.521 10.778-19.696 22.135-31.037 6.2961-6.2871 11.49-12.613 14.586-17.764 7.4124-12.334 12.425-17.542 24.822-25.784 6.1925-4.1174 14.859-10.498 19.259-14.18 11.102-9.2884 21.214-14.002 34.5-16.081 5.775-0.90383 13.875-2.9488 18-4.5445 4.125-1.5956 8.4868-2.9032 9.6928-2.9058 1.2061-0.003 3.6811-0.88197 5.5-1.9543 2.6479-1.561 6.5013-2.1512 19.328-2.9604 9.1533-0.57746 19.656-1.8849 24.5-3.0501 12.905-3.104 22.81-3.5452 34.471-1.5356 7.561 1.303 12.549 1.5561 20.505 1.0405 7.2855-0.47219 11.433-0.31471 13.508 0.51292 1.6472 0.65688 4.795 1.3863 6.995 1.621 7.1093 0.75832 11.866 2.3922 18.5 6.3541 3.575 2.1351 11.864 5.7294 18.42 7.9872 14.92 5.1382 17.347 6.3977 19.417 10.079 0.9146 1.6265 2.746 3.2362 4.0698 3.5771 1.3238 0.34091 5.4115 3.3658 9.0839 6.722s11.085 8.8022 16.472 12.102c7.3943 4.5295 11.54 7.9607 16.916 14 3.9166 4.4 13.759 14.525 21.872 22.5 14.485 14.239 14.823 14.67 18.741 23.908 3.0302 7.145 3.7223 9.7311 2.8767 10.75-0.6124 0.7379-1.5546 1.3416-2.0936 1.3416-0.5391 0-5.9965 2.2049-12.128 4.8999-6.1311 2.6949-13.172 5.2085-15.647 5.5856-15.27 2.327-36.92 9.0448-50 15.514-3.025 1.4962-8.65 3.731-12.5 4.9662s-14.426 5.7805-23.503 10.101c-12.778 6.0817-18.196 8.1217-24 9.0362-11.185 1.7623-26.478 6.268-37.021 10.908-5.1508 2.2666-15.24 6.0683-22.42 8.4482-7.1805 2.3798-19.13 7.2475-26.555 10.817-7.5583 3.6336-18.999 8.1167-25.994 10.186-6.8716 2.0329-18.797 6.6213-26.5 10.196-7.7035 3.5751-17.156 7.6277-21.006 9.0057-14.495 5.188-20.298 7.7333-30.703 13.465-5.8867 3.2431-15.787 7.7165-22 9.9409-11.26 4.031-22.981 9.426-36.33 16.722-3.8681 2.114-11.293 5.5711-16.5 7.6824-5.2068 2.1113-12.945 5.5683-17.195 7.6822-4.2503 2.1139-8.3444 3.8435-9.0981 3.8435-0.75368 0-2.1034-1.6875-2.9995-3.75zm33.325-35.582c3.025-1.8295 11.538-8.1704 18.918-14.091 16.184-12.983 18.927-14.759 29.884-19.346 4.6896-1.9631 13.382-6.8284 19.317-10.812 12.523-8.4051 18.51-10.873 32.496-13.395 11.405-2.0567 11.624-2.1507 23.385-10.038 11.888-7.9731 17.69-10.713 27.737-13.099 7.0111-1.6651 10.96-3.4274 20.126-8.9804 13.282-8.0472 20.478-10.527 34.335-11.831 9.4344-0.88769 10.913-1.3522 23.682-7.4375 15.586-7.4278 15.02-7.2336 26.52-9.0953 5.5423-0.89718 10.345-2.3737 13.374-4.1115 2.5991-1.4914 6.5409-3.7579 8.7595-5.0366 4.8453-2.7926 16.805-4.3754 33.151-4.3874 6.2969-0.005 14.382-0.68906 18.5-1.5662 9.1554-1.9499 20.308-3.5411 29.024-4.1411 5.5929-0.38498 6.8133-0.7929 7.3403-2.4535 1.0357-3.263-0.2843-6.348-4.5344-10.598-2.3471-2.3471-4.014-4.9645-4.014-6.3029 0-2.6136-2.6356-5.9464-4.7025-5.9464-0.7659 0-6.2086-2.3058-12.095-5.1239-5.8864-2.8182-13.949-6.3665-17.916-7.8853-4.1317-1.5817-9.2583-4.5249-12-6.8892-19.12-16.489-27.884-22.179-37.257-24.189-6.779-1.4538-25.33-10.953-28.942-14.819-3.4069-3.647-6.7663-4.577-12.897-3.5701-8.54 1.4025-14.419 0.9432-19.69-1.5385-4.5117-2.1239-6.5625-2.3766-21-2.5883-13.35-0.19571-16.994 0.078-22 1.6528-3.3 1.038-8.9888 2.3524-12.642 2.9208-3.653 0.5684-9.503 2.3684-13 3.9999s-9.9582 4.0693-14.358 5.4172c-4.4 1.3479-12.95 3.9708-19 5.8286s-13.475 4.7702-16.5 6.472-12.892 6.7967-21.927 11.322c-16.1 8.0638-16.669 8.4596-28.546 19.859-6.6657 6.3971-14.876 14.167-18.244 17.267-7.2881 6.7058-9.2721 10.327-13.304 24.282-1.676 5.8005-4.429 13.817-6.1177 17.815-1.6886 3.9975-4.1484 9.8126-5.4663 12.922-1.5497 3.6572-2.7651 9.3082-3.4412 16-0.5749 5.6902-1.4459 11.921-1.9357 13.846-1.7481 6.8708-4.017 22.084-4.017 26.935 0 2.7138 0.6592 8.0679 1.4649 11.898 2.2759 10.819 1.2165 16.557-4.1689 22.579-4.8974 5.4763-5.2532 8.3034-1.296 10.298 3.9847 2.0087 7.1159 1.5169 13-2.0418z"/>
 </g>
 <metadata>
  <rdf:RDF>
   <cc:Work>
    <dc:format>image/svg+xml</dc:format>
    <dc:type rdf:resource="http://purl.org/dc/dcmitype/StillImage"/>
    <cc:license rdf:resource="http://creativecommons.org/licenses/publicdomain/"/>
    <dc:publisher>
     <cc:Agent rdf:about="http://openclipart.org/">
      <dc:title>Openclipart</dc:title>
     </cc:Agent>
    </dc:publisher>
   </cc:Work>
   <cc:License rdf:about="http://creativecommons.org/licenses/publicdomain/">
    <cc:permits rdf:resource="http://creativecommons.org/ns#Reproduction"/>
    <cc:permits rdf:resource="http://creativecommons.org/ns#Distribution"/>
    <cc:permits rdf:resource="http://creativecommons.org/ns#DerivativeWorks"/>
   </cc:License>
  </rdf:RDF>
 </metadata>
</svg>
